<?xml version="1.0" encoding="UTF-8" standalone="no"?>
<!-- Created with Inkscape (http://www.inkscape.org/) -->

<svg
   width="159mm"
   height="217mm"
   viewBox="0 0 159 217"
   version="1.1"
   id="svg1"
   xml:space="preserve"
   xmlns="http://www.w3.org/2000/svg"
   xmlns:svg="http://www.w3.org/2000/svg"><defs
     id="defs1" /><g
     id="layer1"
     transform="translate(30.69166,54.768745)"><path
       style="fill:#000000"
       d="M -21.164116,53.813672 V -46.158289 H 48.80834 118.7808 V 53.813672 153.78563 H 48.80834 -21.164116 Z m 139.322936,0 v -99.312625 l -5.24794,-0.01162 c -4.40114,-0.0097 -93.667531,-0.004 -124.317726,0.008 l -9.290787,0.0036 v 98.051498 c 0,53.928325 0.04525,98.619005 0.100564,99.312625 l 0.100563,1.26113 h 69.327663 69.327663 z m -137.30151,-0.07749 v -97.741767 l 67.871546,0.03628 67.871544,0.03628 0.0406,79.120431 c 0.0223,43.516237 0.0225,87.483706 4.1e-4,97.705486 l -0.0402,18.58506 H 48.729267 -19.14269 Z M 99.810486,150.74611 c -0.384849,-0.11433 -1.197646,-0.43395 -1.806217,-0.71027 -1.094873,-0.49713 -1.120196,-0.50042 -2.411623,-0.31311 -0.991684,0.14384 -1.388805,0.27837 -1.653533,0.56018 -0.477143,0.50792 -2.023279,0.53821 -2.441919,0.0478 -0.273766,-0.32068 -0.280356,-0.32057 -0.900018,0.0145 -0.444915,0.24062 -0.922959,0.33759 -1.664151,0.33759 -1.188331,0 -1.891796,-0.26163 -2.682677,-0.99775 l -0.553743,-0.51539 -0.263416,0.42617 c -0.670936,1.08548 -3.204571,1.44094 -4.668975,0.65503 -0.691198,-0.37095 -0.78543,-0.38378 -1.189881,-0.16207 -0.725121,0.3975 -1.726636,0.47292 -2.276602,0.17143 -0.616076,-0.33772 -0.975088,-0.33497 -1.662898,0.0127 -0.403472,0.20396 -0.597246,0.22961 -0.7235,0.0958 -0.126254,-0.13384 -0.0026,-0.27467 0.461845,-0.52582 0.700426,-0.3788 1.19483,-0.42729 1.813634,-0.17789 0.27314,0.11009 0.865441,0.11042 1.776687,9.9e-4 1.101635,-0.13229 1.514506,-0.1167 2.127171,0.0803 0.989827,0.31832 1.206289,0.31452 1.085533,-0.0191 -0.07798,-0.21543 -0.02855,-0.24434 0.255479,-0.14943 0.857905,0.28671 1.220041,0.27463 1.877215,-0.0626 0.392552,-0.20145 0.762354,-0.5373 0.871681,-0.79166 0.169278,-0.39384 0.150783,-0.47366 -0.170455,-0.73565 -0.468804,-0.38235 -0.511426,-0.37621 -0.717553,0.10337 -0.09564,0.22252 -0.439243,0.55303 -0.763557,0.73447 -0.551681,0.30863 -0.56347,0.33035 -0.183024,0.33717 0.223652,0.004 0.591007,-0.14645 0.816345,-0.33435 0.225338,-0.1879 0.409706,-0.2706 0.409706,-0.18379 0,0.28472 -0.755848,0.69026 -1.286512,0.69026 -0.704031,0 -1.031665,-0.29197 -1.502523,-1.33895 -0.36419,-0.8098 -0.447784,-0.89066 -0.968364,-0.93663 -0.613769,-0.0542 -0.877669,-0.41464 -0.581012,-0.79356 0.267727,-0.34197 1.34526,-0.59313 2.023508,-0.47166 0.549288,0.0984 0.604465,0.15458 0.604465,0.61574 0,0.78324 0.148256,0.44394 0.274806,-0.62892 0.100751,-0.85415 0.175046,-1.00953 0.642282,-1.3433 0.943927,-0.67428 3.012637,-0.39332 3.447601,0.46824 0.199698,0.39555 0.02957,0.38897 -0.555077,-0.0215 -0.33056,-0.23207 -0.729982,-0.32781 -1.370798,-0.32858 -1.093776,-0.001 -1.560103,0.21737 -1.425095,0.66829 0.07535,0.25166 0.01907,0.3224 -0.264642,0.33264 -0.198188,0.007 -0.272875,0.0504 -0.165973,0.0962 0.106902,0.0457 0.194368,0.25595 0.194368,0.46717 0,0.35684 0.03248,0.37104 0.458693,0.20049 0.559596,-0.22391 0.839421,7.9e-4 1.732832,1.39147 1.020908,1.58913 2.077322,2.28223 3.478559,2.28223 0.661245,0 1.63815,-0.43476 1.63815,-0.72904 0,-0.10833 -0.09428,-0.33364 -0.209506,-0.50069 -0.158941,-0.23042 -0.238808,-0.25347 -0.33091,-0.0955 -0.06915,0.11861 -0.03686,0.26362 0.07502,0.33692 0.144859,0.0949 0.111952,0.17661 -0.125351,0.31124 -0.365485,0.20735 -1.533526,0.24786 -1.612088,0.0559 -0.147325,-0.35995 -0.957994,-0.84548 -1.195784,-0.71617 -0.395711,0.21517 -0.600713,0.0616 -1.204104,-0.90205 -0.307521,-0.49113 -0.870166,-1.18319 -1.250321,-1.53792 -0.380155,-0.35473 -0.634099,-0.68236 -0.564321,-0.72808 0.06978,-0.0457 0.508123,-0.0335 0.974098,0.0271 0.674861,0.0878 0.884018,0.18847 1.028065,0.49494 0.343585,0.73102 0.488295,0.76358 0.820435,0.18461 0.172299,-0.30034 0.27778,-0.60694 0.234404,-0.68134 -0.04338,-0.0744 -0.01327,-0.13527 0.06689,-0.13527 0.08017,0 0.221125,0.31476 0.313242,0.69947 0.135591,0.56627 0.12282,0.77173 -0.06706,1.07893 -0.296439,0.4796 -0.172757,0.89621 0.424129,1.42863 0.939065,0.83763 1.66299,0.46176 1.976664,-1.02632 0.309616,-1.46882 0.983839,-1.90316 2.985411,-1.92325 0.82074,-0.008 1.177992,0.0782 1.849644,0.44761 0.980687,0.53936 0.774239,0.15327 -0.2624,-0.49073 -0.63158,-0.39237 -0.786021,-0.41864 -1.956076,-0.33284 -0.756938,0.0555 -1.144668,0.0363 -0.959367,-0.0474 0.171044,-0.0773 0.5384,-0.14579 0.816346,-0.15217 0.277946,-0.006 0.505356,-0.094 0.505356,-0.19476 0,-0.12186 -0.195177,-0.14537 -0.583103,-0.0702 -0.51948,0.10063 -0.781063,0.24165 -1.534963,0.82752 -0.146648,0.11397 -0.290116,0.0736 -0.483546,-0.1361 -0.263649,-0.2858 -0.253178,-0.31771 0.252967,-0.771 l 0.528001,-0.47286 -0.422765,-0.11248 c -0.30107,-0.0801 -0.374727,-0.16341 -0.255885,-0.28939 0.287459,-0.30472 0.19569,-0.7703 -0.151831,-0.7703 -0.175291,0 -0.518873,-0.10973 -0.763516,-0.24384 -0.34962,-0.19165 -0.549316,-0.20521 -0.933182,-0.0634 -0.639786,0.23643 -0.806622,0.0358 -0.318837,-0.38334 0.303502,-0.26082 0.537257,-0.31452 1.084377,-0.24915 0.408297,0.0488 0.924803,-0.01 1.245784,-0.14174 0.589249,-0.24188 1.022018,-0.30334 1.851305,-0.26288 0.4399,0.0215 0.729177,0.24719 1.775561,1.38552 0.754102,0.82036 1.023711,1.05459 0.679563,0.59038 -0.313764,-0.42322 -0.57048,-0.83451 -0.57048,-0.91398 0,-0.0795 -0.336597,-0.53058 -0.747992,-1.00247 l -0.747992,-0.85799 h -1.01384 c -0.771254,0 -1.196385,0.098 -1.776747,0.40943 -0.419598,0.22519 -0.861189,0.44942 -0.981312,0.49828 -0.416232,0.16932 0.125952,-0.37162 0.900732,-0.89865 0.582413,-0.39619 0.912493,-0.50356 1.547986,-0.50356 1.448031,0 2.082921,0.44385 2.988147,2.08898 0.258064,0.469 0.782545,1.09949 1.165515,1.40109 0.382969,0.3016 1.376429,1.10774 2.207688,1.79141 1.956912,1.60947 2.449852,1.97123 2.686052,1.97123 0.10653,0 -0.0833,-0.21271 -0.42184,-0.47268 -0.33854,-0.25996 -0.984869,-0.9647 -1.436282,-1.56607 -0.671086,-0.89402 -1.050746,-1.22112 -2.082054,-1.7938 -0.693717,-0.38522 -1.288254,-0.79316 -1.321193,-0.90655 -0.03928,-0.13521 0.03823,-0.17179 0.22522,-0.1063 0.156809,0.0549 0.0052,-0.16477 -0.33687,-0.4882 -0.783685,-0.74095 -0.502419,-0.79024 0.321874,-0.0564 0.617434,0.54967 3.245349,1.9913 3.604359,1.97728 0.574616,-0.0224 0.602916,-0.0597 0.569296,-0.74934 -0.0217,-0.44514 0.0542,-0.80571 0.2083,-0.989 0.39351,-0.4682 0.50639,-0.33166 0.25439,0.3077 -0.26952,0.68379 -0.18502,1.09469 0.21091,1.02564 0.44823,-0.0782 0.66191,0.17628 0.66191,0.78823 0,0.64183 0.62749,2.17965 1.0494,2.5718 0.76948,0.71523 2.01588,1.0007 2.69269,0.61673 0.53997,-0.30634 0.31623,-0.021 -0.36009,0.45919 -0.62939,0.4469 -0.71266,0.46303 -1.74931,0.33892 -1.51979,-0.18195 -3.161605,-0.85112 -4.310433,-1.75685 -0.885084,-0.69779 -2.142582,-1.44204 -2.142582,-1.26808 0,0.0384 0.279889,0.41254 0.621977,0.83153 0.618475,0.75751 0.681506,0.90037 0.631772,1.4319 -0.01431,0.15293 0.112977,0.35691 0.28286,0.45329 0.462814,0.26257 0.757772,0.21107 0.383358,-0.0669 -0.27372,-0.20324 -0.482701,-1.07651 -0.257617,-1.07651 0.214667,0 0.666065,0.36801 0.596904,0.48664 -0.110189,0.189 0.759509,0.7172 1.794351,1.08977 1.17188,0.42192 3.5493,0.44047 3.93692,0.0307 0.15009,-0.15866 0.3656,-0.28846 0.47892,-0.28846 0.2484,0 1.1712,-1.08078 1.1712,-1.37172 0,-0.11352 -0.44552,-0.47804 -0.99006,-0.81004 -0.54453,-0.332 -1.19177,-0.84135 -1.43832,-1.13188 -0.24654,-0.29054 -0.60016,-0.69978 -0.78581,-0.90942 -1.78058,-2.01072 -2.65496,-4.85425 -2.02191,-6.57536 0.30851,-0.83876 0.78178,-1.56332 1.03241,-1.58058 0.13122,-0.009 0.064,-0.0679 -0.14933,-0.13085 -0.75752,-0.22345 -0.41019,-0.92045 0.69891,-1.4025 0.0855,-0.0372 -0.0413,-0.24187 -0.28182,-0.45488 -0.45539,-0.4033 -0.45734,-0.96236 -0.003,-0.96236 0.12418,0 0.19049,-0.0605 0.14735,-0.13452 -0.0431,-0.074 0.0169,-0.42632 0.13331,-0.78296 l 0.21175,-0.64844 0.0519,0.65403 c 0.042,0.52992 0.15214,0.72543 0.58023,1.03022 0.57097,0.40652 0.51746,0.45838 -0.23644,0.22918 -0.26593,-0.0808 -0.5792,-0.0843 -0.69615,-0.008 -0.34052,0.22309 0.79444,0.64085 1.87281,0.68936 0.51644,0.0232 0.93957,0.0589 0.94028,0.0792 0.007,0.20334 -1.09566,0.53995 -1.76903,0.53995 -0.46905,0 -1.03718,0.0743 -1.26251,0.16512 -0.37226,0.15003 -0.38739,0.18876 -0.16562,0.42386 0.32846,0.34819 0.30725,0.71957 -0.0651,1.13971 -0.31717,0.35789 -0.86074,1.97047 -0.60851,1.80522 0.0771,-0.0505 0.14355,0.0423 0.14766,0.20634 0.005,0.18785 0.10558,0.0855 0.27262,-0.27658 0.14583,-0.31612 0.38572,-0.59938 0.53309,-0.62946 0.24524,-0.0501 0.24857,-0.0153 0.0393,0.40993 -0.12574,0.25554 -0.22904,0.61088 -0.22957,0.78964 -7.8e-4,0.26415 0.0646,0.22695 0.3489,-0.19868 0.39675,-0.59388 1.95669,-1.77754 2.113,-1.60332 0.0565,0.063 -0.0311,0.19858 -0.19482,0.30127 -0.1637,0.10269 -0.51356,0.38852 -0.77748,0.63517 -0.44968,0.42027 -0.45824,0.44877 -0.13628,0.4533 0.18897,0.003 0.52134,-0.1984 0.7386,-0.44678 0.41593,-0.4755 0.52234,-0.41936 0.21002,0.11079 -0.1451,0.24629 -0.14099,0.37029 0.019,0.57469 0.11223,0.14335 0.29647,0.26063 0.40943,0.26063 0.31824,0 0.68951,-0.67623 0.68951,-1.25586 0,-0.39251 0.13726,-0.65092 0.54964,-1.03474 0.3023,-0.28137 0.62802,-0.51158 0.72382,-0.51158 0.17333,0 -0.19957,0.55125 -0.64391,0.95189 -0.18507,0.16686 -0.19561,0.2737 -0.0512,0.51887 0.15218,0.25832 0.1325,0.32242 -0.1205,0.39256 -0.35972,0.0997 -0.40671,0.44436 -0.0606,0.44436 0.14172,0 0.39273,-0.35817 0.60647,-0.86538 0.23847,-0.56588 0.59876,-1.05601 1.04103,-1.41617 0.6235,-0.50774 0.74408,-0.5446 1.54283,-0.47158 0.47656,0.0436 1.17629,0.24331 1.55495,0.44389 0.67766,0.35895 0.68352,0.35924 0.37374,0.0189 -0.35943,-0.39488 -1.87639,-1.00389 -2.51916,-1.01136 -0.37483,-0.004 -0.39489,-0.0276 -0.15272,-0.17698 0.34359,-0.21194 1.54958,0.0356 2.4699,0.50696 0.58271,0.29844 0.61379,0.30056 0.37933,0.0259 -0.7808,-0.9146 -3.40921,-1.66598 -5.03281,-1.43871 -0.38762,0.0543 -0.66085,0.0257 -0.66085,-0.0692 0,-0.0958 0.68927,-0.16168 1.69088,-0.16168 2.52078,0 3.6507,0.52511 4.87235,2.26432 0.55987,0.79707 0.67497,0.89256 0.71517,0.59337 0.0643,-0.47852 -0.71608,-2.0508 -1.63327,-3.2906 -1.93151,-2.61091 -2.0996,-2.8705 -2.01322,-3.10912 0.10308,-0.28476 0.41094,-0.33869 0.41094,-0.072 0,0.0974 0.5073,0.76939 1.12733,1.49322 0.62004,0.72384 1.35704,1.70111 1.63778,2.17173 1.00331,1.68186 1.53036,4.36738 1.12225,5.71827 -0.0907,0.30018 -0.13167,0.0988 -0.15093,-0.74176 -0.0145,-0.63461 -0.0866,-1.30219 -0.16006,-1.4835 -0.17681,-0.43617 -0.20047,-0.19985 -0.16504,1.64834 0.0254,1.32521 -0.10169,2.64445 -0.397,4.12085 -0.0685,0.34242 -0.0488,0.44381 0.0641,0.32967 0.25352,-0.25631 1.16362,-4.30802 1.27738,-5.68678 l 0.10199,-1.23625 0.0246,1.31867 c 0.0306,1.64136 -0.20177,3.21023 -0.60718,4.09955 l -0.31028,0.68064 0.63731,-0.74175 c 0.83479,-0.9716 1.49467,-2.35907 1.86718,-3.92597 0.34415,-1.44759 0.38842,-3.50055 0.0913,-4.23333 -0.1778,-0.43849 -0.21041,-0.18215 -0.28787,2.26322 -0.0762,2.40519 -0.12839,2.82662 -0.40843,3.29669 -0.17659,0.29643 -0.46861,0.82431 -0.64893,1.17306 -0.18032,0.34876 -0.34982,0.60837 -0.37668,0.57692 -0.0269,-0.0315 0.11695,-0.76185 0.31959,-1.62311 0.20263,-0.86125 0.36943,-1.7699 0.37067,-2.01921 0.001,-0.24932 0.0722,-0.4533 0.15774,-0.4533 0.0965,0 0.15549,-0.90334 0.15549,-2.38037 0,-1.3092 0.0623,-2.42119 0.13849,-2.4711 0.1736,-0.11373 0.55453,0.49652 0.6997,1.12094 0.0605,0.26001 0.14507,0.43548 0.18803,0.38994 0.0701,-0.0743 0.2001,-5.23079 0.13186,-5.23079 -0.0156,0 -0.21507,0.29919 -0.44335,0.66486 -0.22828,0.36568 -0.65655,0.78695 -0.95171,0.93615 -0.60388,0.30527 -0.58484,0.002 -0.22047,3.50885 0.13901,1.33784 0.1743,3.19892 0.0438,2.30768 -0.0332,-0.22665 -0.19261,-1.04257 -0.35424,-1.81317 -0.16163,-0.7706 -0.33057,-1.68001 -0.37542,-2.02091 -0.0449,-0.34089 -0.18057,-0.72477 -0.30159,-0.85306 -0.19542,-0.20716 -0.49899,-1.71364 -0.37236,-1.84788 0.0273,-0.0289 0.27094,0.0359 0.54142,0.14416 0.42848,0.17145 0.54725,0.15322 0.92271,-0.14164 0.70385,-0.55277 1.09329,-1.3176 1.27051,-2.49521 0.0918,-0.61028 0.18542,-3.49276 0.20794,-6.40551 l 0.0409,-5.29592 -0.42186,0.37633 c -0.23203,0.20699 -0.50446,0.40552 -0.60541,0.44119 -0.1322,0.0467 -0.1386,0.15485 -0.0229,0.38664 0.17952,0.35953 0.67702,3.09394 0.74832,4.11298 0.0254,0.36264 0.0131,0.4739 -0.0273,0.24725 -0.0404,-0.22664 -0.3579,-1.30219 -0.70553,-2.39009 -0.50151,-1.56947 -0.63657,-2.23905 -0.65391,-3.24182 -0.012,-0.69509 -0.0709,-1.31579 -0.13091,-1.37933 -0.18808,-0.19924 -0.32389,0.73955 -0.22938,1.58549 0.0498,0.44572 0.0553,0.81039 0.0122,0.81039 -0.21428,0 -0.52897,-1.25456 -0.52897,-2.10881 0,-0.79086 0.0633,-1.02699 0.34987,-1.30503 0.59441,-0.57673 0.99478,-0.61526 1.4441,-0.13895 0.41461,0.43952 0.39922,0.81014 -0.0265,0.63698 -0.3155,-0.12835 -0.4963,0.19045 -0.40262,0.70994 0.10285,0.57033 0.66269,0.46232 0.95478,-0.18422 0.26094,-0.5776 0.40027,-4.20328 0.16153,-4.20328 -0.0818,0 -0.14878,0.138 -0.14878,0.30667 0,0.16867 -0.17609,0.58173 -0.39131,0.91792 -0.39431,0.61596 -0.39347,0.91826 0.003,0.91826 0.11819,0 0.25659,0.0715 0.30755,0.15894 0.0547,0.0938 -0.19518,0.15282 -0.60982,0.14399 -0.38637,-0.008 -0.66472,-0.0797 -0.61854,-0.15894 0.1781,-0.30548 -0.11461,-0.11947 -0.71143,0.45211 -0.34233,0.32786 -0.62243,0.73144 -0.62243,0.89686 0,0.3963 -0.25336,0.55234 -0.37066,0.22828 -0.0973,-0.26882 0.11155,-2.0958 0.29571,-2.58662 0.0627,-0.16704 0.0378,-0.28846 -0.059,-0.28846 -0.092,0 -0.12698,-0.11126 -0.0778,-0.24725 0.16745,-0.46258 -0.1757,-0.23547 -0.52754,0.34913 -0.3409,0.56644 -0.34412,0.6117 -0.11743,1.64789 0.1282,0.58601 0.34214,1.3036 0.47541,1.59465 l 0.24232,0.52918 -0.39173,-0.45599 c -0.35727,-0.41588 -0.86875,-1.82377 -0.86875,-2.39131 0,-0.1279 0.13994,-0.42114 0.31098,-0.65165 0.32853,-0.44274 0.41744,-1.03399 0.1555,-1.03399 -0.31595,0 -0.77747,-0.67388 -0.77747,-1.13521 0,-0.26424 0.22474,-0.82874 0.50535,-1.26931 l 0.50536,-0.79343 0.97184,0.0447 c 0.53451,0.0246 0.97184,-5.9e-4 0.97184,-0.056 0,-0.0554 -0.27989,-0.38292 -0.62198,-0.72789 -0.67127,-0.67692 -0.75777,-1.0756 -0.39479,-1.81968 0.1588,-0.32554 0.34601,-0.46571 0.62198,-0.46571 0.35663,0 0.39479,0.0634 0.39479,0.65637 0,0.51572 -0.05,0.63604 -0.23324,0.56149 -0.26147,-0.10636 -0.2738,-0.0794 -0.13678,0.29911 0.053,0.14656 0.37537,0.40932 0.71626,0.58391 0.61409,0.31452 0.61906,0.31447 0.54007,-0.006 -0.0949,-0.38457 0.12755,-0.43733 0.26326,-0.0624 0.19097,0.52755 0.0844,1.05237 -0.30387,1.49649 -0.27761,0.31754 -0.36741,0.55728 -0.29645,0.79145 0.33129,1.09322 0.29531,1.24211 -0.51298,2.12277 -0.8877,0.96718 -1.32542,1.77938 -1.24167,2.30396 0.0528,0.33089 0.075,0.32009 0.27725,-0.13478 0.12091,-0.27198 0.50977,-0.7912 0.86413,-1.15384 0.68197,-0.6979 1.29526,-2.13295 1.32347,-3.09683 0.0145,-0.4944 0.0229,-0.50219 0.12682,-0.11744 l 0.11131,0.41209 0.0676,-0.41209 c 0.0372,-0.22664 0.0478,-34.369119 0.0237,-75.872162 l -0.0439,-75.460079 -53.718394,0.02283 c -32.017875,0.01361 -53.6832554,0.08311 -53.631404,0.172044 0.047847,0.08207 0.1853888,0.149215 0.3056486,0.149215 0.1202597,0 0.4659924,0.23021 0.7682949,0.511578 0.3295695,0.306747 0.5501265,0.422243 0.5508535,0.28846 0.0019,-0.356349 0.767836,-0.649261 1.942467,-0.74288 0.921547,-0.07345 1.249956,-0.02129 2.141597,0.34013 1.047191,0.424473 2.346055,0.565949 2.516222,0.274074 0.049,-0.08404 0.336419,-0.239337 0.63871,-0.345095 0.507394,-0.177513 0.578336,-0.159441 0.923376,0.235226 0.295535,0.338041 0.321482,0.427512 0.123981,0.427512 -0.137376,0 -0.481443,0.286909 -0.764593,0.637576 -0.314644,0.38967 -0.705799,0.678067 -1.00599,0.741711 -0.312371,0.06623 -0.7154,0.374172 -1.10713,0.845932 -0.659561,0.794309 -1.187095,0.958772 -1.321945,0.412129 -0.113863,-0.461565 -0.356043,-0.411862 -0.356043,0.07307 0,0.413001 -0.504436,0.915935 -0.91867,0.915935 -0.336661,0 -0.937645,-0.658941 -0.84199,-0.923189 0.04555,-0.125816 0.162942,-0.17543 0.260883,-0.110252 0.319185,0.212412 0.901345,0.228921 1.125275,0.03191 0.29285,-0.257641 0.277127,-1.036515 -0.03402,-1.685213 l -0.253025,-0.527525 0.406139,0.397239 c 0.223376,0.218481 0.450129,0.645809 0.503894,0.949617 0.125617,0.709815 0.257471,0.783785 0.707154,0.396715 l 0.36606,-0.31509 -0.699725,-0.695454 c -0.384848,-0.3825 -1.010807,-0.907891 -1.391018,-1.167535 -0.380212,-0.259644 -0.577996,-0.472081 -0.43952,-0.472081 0.138476,0 0.563244,0.252032 0.94393,0.56007 0.982612,0.795097 1.25556,0.924647 1.925972,0.914135 0.892798,-0.014 1.603156,-0.341709 2.034324,-0.938493 0.315597,-0.436821 0.340309,-0.535712 0.133874,-0.535712 -0.139243,0 -0.388436,0.143392 -0.553761,0.318647 -0.666097,0.706107 -1.06933,0.877319 -1.794675,0.762013 -0.774832,-0.123172 -1.053975,-0.369127 -0.51157,-0.450747 0.530486,-0.07983 -0.970116,-0.793535 -1.882196,-0.895201 -1.037069,-0.115597 -2.274971,0.252989 -2.274971,0.677374 0,0.216382 0.120225,0.347769 0.349862,0.382341 0.260853,0.03927 0.349862,-0.02963 0.349862,-0.270824 0,-0.177924 0.110682,-0.368521 0.245959,-0.42355 0.398834,-0.16224 0.527679,-0.116423 0.430163,0.152963 -0.05038,0.139159 0.06984,0.575594 0.267144,0.969856 l 0.358735,0.716839 -0.418577,0.554861 c -0.662277,0.877907 -0.88407,1.093511 -1.220978,1.186906 -0.173351,0.04806 -0.273884,0.04359 -0.223406,-0.0099 0.109792,-0.116386 -0.196926,-0.539709 -0.391045,-0.539709 -0.07505,0 -0.136455,0.157433 -0.136455,0.349851 0,0.272517 -0.04574,0.30961 -0.206927,0.167803 -0.156091,-0.137326 -0.289792,-0.100212 -0.5442302,0.151072 -0.185517,0.183217 -0.3373036,0.404407 -0.3373036,0.491535 0,0.326616 1.3194218,0.155823 2.0048298,-0.259515 0.375721,-0.227677 0.713681,-0.38157 0.751023,-0.341985 0.168323,0.178434 -0.497166,0.914891 -1.185707,1.312152 -1.0946662,0.631579 -1.7534877,0.564269 -2.6149752,-0.267164 l -0.3451049,-0.333066 -0.1506604,0.420069 c -0.2031628,0.566455 -0.4475904,0.699885 -0.448738,0.244959 -5.13e-4,-0.203382 -0.051807,-0.814838 -0.1139871,-1.358791 -0.093565,-0.818512 -0.077487,-0.953486 0.093266,-0.782963 0.5302449,0.529533 1.5947289,0.05852 1.7520327,-0.775246 0.1336776,-0.708535 0.0063,-0.935789 -0.690091,-1.231165 -0.7834482,-0.332303 -1.4489334,-0.346687 -1.3338716,-0.02883 0.046037,0.127176 -0.01013,0.367262 -0.1248142,0.533523 -0.2017058,0.292418 -0.2193146,0.291935 -0.5390341,-0.01479 -0.1817841,-0.174394 -0.2966304,-0.41069 -0.2552139,-0.525103 0.054512,-0.15059 -0.017493,-0.171633 -0.260804,-0.07622 -0.2048272,0.08032 -0.3887151,0.350657 -0.4707973,0.692125 -0.07408,0.308177 -0.317204,0.764305 -0.5402756,1.013616 -0.3673556,0.410568 -0.508404,0.453295 -1.4964245,0.453295 -1.0090159,0 -1.1281077,-0.03829 -1.5876795,-0.510482 -0.3982715,-0.409206 -0.6814069,-0.53355 -1.42716193,-0.626763 -0.60772814,-0.07596 -1.34449589,-0.339134 -2.12474947,-0.758959 -1.1143501,-0.599589 -1.2797837,-0.641502 -2.4675994,-0.625176 -1.2764079,0.01754 -1.9053752,0.190713 -2.8899604,0.795669 -0.7805778,0.479609 -1.5822846,1.243068 -1.4834172,1.412648 0.047531,0.08153 0.021064,0.148228 -0.058815,0.148228 -0.079879,0 -0.1890408,-0.232188 -0.242582,-0.515974 -0.2103827,-1.115097 0.9141394,-2.097884 2.8342165,-2.47699 1.4804037,-0.292295 2.7448502,-0.06474 5.67590359,1.021476 1.25824602,0.46629 2.08245981,0.543853 1.72036141,0.161894 -0.078442,-0.08275 -1.12153508,-0.488278 -2.31798427,-0.901185 -2.02446083,-0.698662 -2.28872743,-0.750571 -3.80961153,-0.748303 -2.5494609,0.0038 -4.8516238,0.656406 -6.1752663,1.750534 -0.495707,0.409753 -1.116748,0.841463 -1.380093,0.959355 -0.591752,0.264913 -1.777708,1.439615 -1.770687,1.753885 0.0037,0.16399 0.08611,0.135362 0.282516,-0.0981 0.152539,-0.181318 0.580001,-0.626371 0.949915,-0.989006 l 0.672572,-0.659337 -0.294237,0.55532 c -0.161831,0.305426 -1.180119,1.537796 -2.262863,2.7386 -1.082744,1.200804 -2.106032,2.471506 -2.273974,2.823782 -0.292101,0.612713 -0.893422,3.327803 -0.766759,3.462075 0.03345,0.03545 0.214938,-0.545978 0.403313,-1.292073 0.277325,-1.098392 1.119527,-2.930591 1.347098,-2.930591 0.02847,0 0.0188,0.24107 -0.0215,0.535711 -0.116151,0.849374 0.472066,1.75428 1.503997,2.313729 0.805094,0.436471 0.939079,0.459277 2.063633,0.351252 0.968769,-0.09306 1.23445,-0.178537 1.366224,-0.439549 0.182172,-0.360838 0.07377,-0.526015 -0.456858,-0.696167 -0.302218,-0.09691 -0.387373,-0.03353 -0.543292,0.40436 -0.171171,0.480723 -0.224982,0.51131 -0.724696,0.411932 -0.767388,-0.15261 -1.304629,-0.48101 -1.7926,-1.095765 -0.367714,-0.463252 -0.415049,-0.644241 -0.357208,-1.365803 0.03667,-0.457482 0.184298,-1.0914 0.328058,-1.408706 0.284104,-0.62707 2.438777,-3.350188 2.554107,-3.22793 0.03892,0.04126 -0.07036,0.543356 -0.242856,1.115765 -0.398567,1.322613 -0.491413,1.930757 -0.312652,2.047873 0.189622,0.124232 0.620174,-0.267615 0.545166,-0.496158 -0.03273,-0.09972 0.0699,-0.439819 0.228063,-0.755782 0.158161,-0.315964 0.287566,-0.671252 0.287566,-0.78953 0,-0.282445 0.573712,-1.469513 0.773469,-1.600385 0.09217,-0.06039 0.116244,0.0075 0.05887,0.165977 -0.180483,0.498582 0.44507,2.244896 1.0427216,2.910895 0.4533258,0.505169 0.6767782,0.629275 1.1330024,0.629275 0.3609805,0 0.6817592,-0.120267 0.879295,-0.329668 0.1710438,-0.181318 0.3809612,-0.329669 0.4664831,-0.329669 0.085522,0 0.1554943,-0.146937 0.1554943,-0.326528 0,-0.598972 0.687295,-0.595486 1.8110928,0.0092 1.070639,0.576069 1.7122843,1.313421 2.9297742,3.366776 l 0.5864084,0.989005 -0.7556658,-0.741754 c -0.4156162,-0.407965 -0.8109807,-0.830559 -0.8785877,-0.939099 -0.3086041,-0.49545 -0.940017,-1.210041 -1.0067166,-1.139335 -0.040643,0.04308 0.010109,0.348163 0.1127828,0.677953 0.2603207,0.836158 0.2417217,2.035605 -0.042164,2.719155 l -0.2396012,0.57692 0.077309,-0.57843 c 0.099802,-0.746727 -0.4368317,-2.47365 -1.0878885,-3.500899 -0.662607,-1.045472 -0.8129863,-0.996484 -0.2520195,0.0821 0.3399116,0.653555 0.4460062,1.067117 0.4334348,1.68955 l -0.016646,0.824172 -0.1071791,-0.659337 c -0.1086311,-0.66827 -0.7520695,-2.152255 -0.8761574,-2.020714 -0.03718,0.03941 0.010777,0.310003 0.1065729,0.601308 0.095796,0.291305 0.133055,0.573234 0.082799,0.626509 -0.1246486,0.132136 -0.4110646,-0.701089 -0.4110646,-1.195845 0,-0.220745 -0.027881,-0.401355 -0.061957,-0.401355 -0.034077,0 -0.4610167,0.222527 -0.9487559,0.494503 -1.1050192,0.616189 -1.3802915,0.616182 -2.254668,-5.7e-5 l -0.6997242,-0.493147 -0.151192,0.370228 c -0.214554,0.525384 -0.315779,0.57018 -1.182355,0.523248 -0.7552,-0.0409 -0.78026,-0.02706 -1.080369,0.596532 -0.351903,0.73122 -0.387726,1.159617 -0.120642,1.442743 0.276939,0.293573 0.689327,0.241819 1.3791,-0.173076 0.537199,-0.323122 0.637793,-0.339041 0.781242,-0.123626 0.146356,0.219779 0.157849,0.219779 0.103443,0 -0.03366,-0.135988 -0.336374,-0.395602 -0.672689,-0.57692 -0.792911,-0.427482 -0.754531,-0.397806 -0.653287,-0.505131 0.04828,-0.05118 0.343449,-0.0422 0.655941,0.01994 0.477767,0.09501 0.619092,0.227836 0.888232,0.8348 0.187842,0.42362 0.426013,0.721809 0.5765263,0.721809 0.1410535,0 0.3394881,0.140933 0.4409658,0.313185 0.1278655,0.217043 0.3631137,0.313185 0.7663304,0.313185 0.6357853,0 1.1091504,-0.255793 1.8839967,-1.01806 0.628292,-0.618091 0.6738087,-0.256024 0.050835,0.404369 -0.2624324,0.278196 -0.3654795,0.481823 -0.2438298,0.481823 0.3264383,0 0.8891891,-0.940955 0.7802861,-1.304688 -0.052021,-0.173751 -0.021766,-0.363618 0.067235,-0.421927 0.3000448,-0.196576 0.1708832,1.087714 -0.1750027,1.740101 -0.4192004,0.790667 -1.4807285,1.378851 -2.1903202,1.213637 -0.2597092,-0.06047 -0.7151523,-0.367489 -1.0120957,-0.682269 -0.5913375,-0.626856 -0.9003435,-0.552293 -0.7279895,0.175665 0.146003,0.616664 0.779199,1.092971 1.4504254,1.091048 0.7164416,-0.0021 2.1244247,-0.691062 2.7779285,-1.359405 0.2779462,-0.284257 0.5053566,-0.451444 0.5053566,-0.371526 0,0.07992 -0.4373278,0.575803 -0.9718396,1.101967 -0.6859941,0.67528 -0.8869097,0.957188 -0.6830884,0.958452 0.1899999,0.0012 0.2587166,0.08476 0.2009293,0.244397 -0.048302,0.133434 -0.013159,0.46965 0.078096,0.747148 0.2011306,0.611619 0.4293828,0.569752 1.6868915,-0.309421 0.6641475,-0.464331 0.969886,-0.827772 1.3684582,-1.626729 0.2822816,-0.565846 0.571998,-1.344688 0.6438141,-1.730759 l 0.1305749,-0.701947 0.017037,0.757157 c 0.017785,0.790405 -0.3994615,2.301106 -0.826267,2.991619 -0.4302037,0.696012 -1.4640508,1.455247 -2.2913873,1.682746 -0.7819145,0.215009 -0.8038888,0.210945 -1.1685174,-0.2161 -0.3074767,-0.36011 -0.3577553,-0.556865 -0.2913051,-1.139965 l 0.080312,-0.704735 -0.5778929,0.416275 c -0.3178411,0.228952 -0.6950114,0.416276 -0.8381563,0.416276 -0.2203123,0 -0.2331046,0.06101 -0.083336,0.397425 0.1416111,0.318096 0.2334321,0.365369 0.4600024,0.236829 0.1556912,-0.08833 0.3966276,-0.137363 0.5354143,-0.108966 0.1572568,0.03218 -0.1018451,0.28336 -0.6876303,0.666615 -0.759342,0.496805 -1.1478642,0.635465 -2.0218345,0.721571 -0.709733,0.06993 -1.198069,0.04066 -1.419693,-0.08507 -0.185805,-0.105413 -0.337827,-0.148178 -0.337827,-0.09503 0,0.05315 0.22741,0.197219 0.505357,0.320163 0.39168,0.173253 0.689984,0.184778 1.326136,0.05123 0.9183706,-0.192788 0.9438369,-0.183268 1.0029261,0.374904 0.035408,0.334477 -0.048478,0.423131 -0.5195421,0.549075 -0.308972,0.08261 -0.744791,0.1015 -0.968485,0.04198 -0.490846,-0.130594 -3.215701,-2.49979 -3.204168,-2.785947 0.0045,-0.111302 0.117979,-0.03547 0.252207,0.16851 0.134229,0.203982 0.392955,0.372526 0.574948,0.374542 0.181993,0.002 0.505828,0.148717 0.719632,0.326003 0.730002,0.605315 3.1296973,0.369912 3.5518481,-0.348425 0.1990872,-0.33877 0.1883232,-0.349723 -0.2332415,-0.237344 -0.8717126,0.232379 -1.6358076,0.290426 -2.4330436,0.184834 -1.480607,-0.196101 -1.631217,-0.61772 -0.232547,-0.650994 0.669815,-0.01593 0.829696,-0.07605 0.875936,-0.329338 0.04952,-0.271257 -0.01143,-0.296322 -0.489421,-0.201264 -0.378366,0.07524 -0.800762,0.0059 -1.375862,-0.225784 -0.456432,-0.1839 -0.852085,-0.334401 -0.879228,-0.334447 -0.115652,-1.94e-4 0.18485,0.76868 0.417606,1.068499 0.221799,0.285706 0.222576,0.301441 0.0062,0.125056 -0.136152,-0.110975 -0.282357,-0.164873 -0.3249,-0.119775 -0.139631,0.148018 -0.546002,-0.482188 -0.828785,-1.285288 -0.290587,-0.825267 -0.682576,-1.314453 -0.478632,-0.597313 0.06204,0.218159 0.179594,0.680565 0.261229,1.02757 0.227525,0.967135 0.858862,2.179036 1.475936,2.833175 1.506631,1.597128 4.280497,1.870869 5.124308,0.505697 0.1447707,-0.234219 0.3197813,-0.425853 0.3889126,-0.425853 0.2544697,0 -0.3669311,1.087418 -0.9126509,1.59709 l -0.562847,0.525668 0.432365,0.174259 c 0.7542998,0.30401 2.4360257,1.194969 2.5166788,1.333307 0.042677,0.0732 -0.1305682,0.0498 -0.3849896,-0.052 -0.3808137,-0.152375 -0.6509491,-0.120783 -1.5281831,0.17872 -1.346958,0.459874 -1.7886028,0.455034 -2.7539728,-0.03018 -0.774208,-0.389132 -2.085107,-1.653875 -1.908395,-1.841202 0.05105,-0.05412 0.256425,0.137206 0.45638,0.42517 0.472962,0.681132 1.502734,1.315522 2.135418,1.315522 0.7208002,0 1.9212023,-0.333514 2.1932423,-0.609361 0.2045395,-0.207401 0.1819879,-0.223192 -0.1832615,-0.128326 -0.8021801,0.208351 -3.6215858,-1.085749 -4.6816598,-2.148869 -0.808086,-0.810409 -2.021251,-2.586143 -1.847282,-2.703906 0.08494,-0.0575 0.08616,-0.255444 0.003,-0.491128 -0.187628,-0.531938 -0.262894,-0.40428 -0.308158,0.522661 -0.03587,0.734642 -0.272475,1.112715 -0.30682,0.490276 -0.0088,-0.158653 -0.07634,-0.02885 -0.150186,0.28846 -0.07385,0.317306 -0.09753,0.688183 -0.05262,0.824171 0.06075,0.183957 0.03639,0.199665 -0.09514,0.06136 -0.270698,-0.284624 -0.454388,-1.332087 -0.473263,-2.69871 -0.02451,-1.774375 -0.263395,-0.794705 -0.311357,1.276864 -0.03218,1.390037 0.02914,1.847907 0.452883,3.381438 0.348657,1.261794 0.490107,2.114781 0.490107,2.955497 l 0,1.181793 -0.69385,0.684954 c -0.381617,0.376725 -0.757095,0.864049 -0.834394,1.082943 -0.305137,0.864072 -0.353555,2.453617 -0.175153,5.750191 0.185392,3.425723 0.184531,3.448176 -0.161368,4.2056266 -0.191266,0.418834 -0.369952,0.7379868 -0.397081,0.7092285 -0.02713,-0.028758 0.06292,-0.4797916 0.200114,-1.0022961 0.237285,-0.903722 0.231715,-1.072256 -0.114314,-3.459043 -0.43466,-2.99813 -0.45623,-4.610845 -0.08096,-6.052971 0.153344,-0.589282 0.311722,-1.312492 0.351952,-1.607133 0.04023,-0.294641 0.143623,-0.535712 0.229762,-0.535712 0.08614,0 0.120022,0.148351 0.07529,0.329669 -0.04473,0.181318 -0.0229,0.329668 0.0485,0.329668 0.245546,0 0.593275,-0.491889 0.69508,-0.983242 0.05608,-0.270671 0.18425,-0.475417 0.284821,-0.454989 0.321218,0.06524 0.186572,-1.518523 -0.277114,-3.259544 -0.241452,-0.906588 -0.484143,-1.945044 -0.539315,-2.307679 l -0.100311,-0.659337 -0.111053,0.556315 c -0.218034,1.092232 -0.07782,3.135775 0.289816,4.223877 0.08622,0.255186 0.06824,0.287554 -0.07957,0.143262 -0.303786,-0.29655 -0.943191,-2.32429 -0.944143,-2.99415 -4.77e-4,-0.335847 -0.07685,-0.900738 -0.16972,-1.255313 -0.19088,-0.728784 -0.0103,-2.442581 0.481223,-4.56714 0.391592,-1.692606 0.779173,-2.514097 1.803156,-3.821851 l 0.864154,-1.103632 -0.544076,0 c -0.354938,0 -0.706298,-0.144699 -1.010724,-0.416243 -0.256656,-0.228934 -0.559408,-0.395828 -0.672781,-0.370877 -0.328118,0.07221 -0.290715,-3.232422 0.04056,-3.583525 0.225259,-0.238742 0.233695,-0.175895 0.09709,0.723319 -0.269525,1.774121 0.07199,2.553577 1.238909,2.827608 1.042811,0.244887 1.618407,0.0042 2.193023,-0.917042 0.280681,-0.449993 0.61305,-0.807868 0.738598,-0.795277 0.270771,0.02716 0.307699,-0.214605 0.04686,-0.306774 -0.09977,-0.03526 -0.18141,-0.301052 -0.18141,-0.590656 0,-0.381205 -0.07142,-0.526554 -0.25872,-0.526554 -0.142296,0 -0.602948,-0.185128 -1.023671,-0.411396 -0.420723,-0.226268 -1.027348,-0.411706 -1.348055,-0.412086 -0.320707,-3.79e-4 -0.583104,-0.07855 -0.583104,-0.173709 0,-0.270037 1.862524,0.0107 2.407247,0.362841 0.258169,0.166897 0.59185,0.303726 0.741514,0.304065 0.149663,3.39e-4 0.273671,0.05625 0.275572,0.124242 0.0019,0.06799 0.130454,0.29867 0.285672,0.512614 0.265627,0.366127 0.308833,0.374722 0.73514,0.146242 0.24911,-0.133511 0.550133,-0.206213 0.668939,-0.161561 0.118807,0.04465 0.172936,0.0073 0.120288,-0.083 -0.211799,-0.363282 1.001455,-1.101255 2.5403456,-1.545189 l 1.0107133,-0.291567 -1.8659322,-0.0259 c -1.0262627,-0.01424 -3.4927917,-0.04151 -5.4811757,-0.06059 l -3.615244,-0.03469 v 97.220453 97.220453 l 59.593209,-0.0147 c 48.238259,-0.0119 59.459878,-0.0543 58.893484,-0.2226 z M 78.358459,149.2606 c -0.47894,-0.61175 0.524261,-1.52574 1.468546,-1.33795 0.277196,0.0551 0.629463,0.2472 0.782816,0.42683 0.27564,0.32288 0.268338,0.3255 -0.639503,0.22965 -0.696861,-0.0736 -0.993326,-0.0357 -1.229316,0.15715 -0.29374,0.24001 -0.279829,0.24896 0.250789,0.16132 0.333786,-0.0551 0.71242,-0.005 0.932966,0.12367 0.365655,0.21323 0.361916,0.21827 -0.250789,0.33807 -0.918885,0.17966 -1.108709,0.16541 -1.315509,-0.0987 z m -1.483389,-0.10444 c -0.262017,-0.13125 -0.245631,-0.14244 0.104056,-0.071 0.346593,0.0708 0.470641,-0.0106 0.752131,-0.49343 0.185397,-0.31799 0.634526,-0.76295 0.998065,-0.9888 0.667078,-0.41441 1.488876,-0.55008 1.488876,-0.24579 0,0.0907 -0.234841,0.16483 -0.52187,0.16483 -0.593175,0 -1.878848,0.93262 -2.043419,1.48228 -0.107241,0.35819 -0.293491,0.39457 -0.777839,0.15195 z m 22.04254,-5.56802 c -0.432478,-0.62009 -0.766441,-1.46077 -1.220229,-3.07166 -0.334948,-1.18903 -0.362893,-1.23764 -0.284231,-0.49451 0.04798,0.4533 0.118398,1.00961 0.156482,1.23626 0.04198,0.24985 -0.05321,0.13258 -0.241784,-0.29784 -0.171065,-0.39046 -0.425145,-0.87261 -0.564621,-1.07143 -0.234734,-0.3346 -0.247804,-0.33697 -0.175752,-0.0318 0.04281,0.18132 0.131971,0.47802 0.198129,0.65934 0.105054,0.28792 0.06531,0.27748 -0.31386,-0.0824 -0.551843,-0.5238 -1.007534,-1.56413 -1.010818,-2.30768 -0.0031,-0.69165 0.260105,-1.76319 0.466178,-1.8982 0.08137,-0.0533 0.112227,0.002 0.06856,0.1224 -0.04367,0.12064 0.02188,0.36556 0.14566,0.54427 0.220316,0.3181 0.228646,0.31626 0.395497,-0.0871 0.09374,-0.22665 0.376534,-0.70879 0.628427,-1.07143 0.553272,-0.79651 0.612814,-1.19033 0.07476,-0.4945 -0.210305,0.27198 -0.382719,0.392 -0.383144,0.26672 -8.43e-4,-0.24846 1.020526,-1.33814 1.254254,-1.33814 0.18572,0 0.181829,0.11228 -0.0253,0.73005 -0.230327,0.68696 0.281618,2.0103 0.819807,2.11914 0.316415,0.064 0.321378,0.0757 0.04049,0.0954 -0.476125,0.0334 -0.831452,-0.31481 -1.072697,-1.05116 -0.185399,-0.56589 -0.231993,-0.61137 -0.335496,-0.32749 -0.06611,0.18132 -0.211576,0.42769 -0.323264,0.54749 -0.111687,0.1198 -0.201997,0.34233 -0.200687,0.4945 0.0021,0.23888 0.02298,0.24291 0.153113,0.0294 0.116952,-0.19184 0.151266,-0.14303 0.153113,0.21781 0.0022,0.43829 0.01765,0.44888 0.267555,0.18397 0.171542,-0.18185 0.285926,-0.2151 0.323946,-0.0942 0.03233,0.1028 0.157901,0.18691 0.279057,0.18691 0.121156,0 0.220284,0.0742 0.220284,0.16483 0,0.0907 -0.114314,0.16484 -0.254031,0.16484 -0.414157,0 -0.225276,3.01932 0.24894,3.97939 0.301179,0.60975 0.953578,2.44914 0.868664,2.44914 -0.01519,0 -0.175839,-0.21252 -0.357,-0.47227 z m -1.232151,-0.72632 c -0.441829,-0.38335 -1.141553,-0.91953 -1.554944,-1.1915 -0.682406,-0.44897 -0.755974,-0.558 -0.798926,-1.18407 l -0.04731,-0.68957 1.213789,1.34891 c 1.540074,1.7115 2.144665,2.42126 2.058679,2.41678 -0.03738,-0.002 -0.429461,-0.3172 -0.87129,-0.70055 z m 1.60892,-0.66197 c -0.06356,-0.25456 -0.03399,-0.76914 0.0663,-1.15384 0.239235,-0.91765 0.323799,-0.60888 0.170978,0.62431 -0.104963,0.84699 -0.139034,0.92303 -0.237282,0.52953 z m -0.534195,-1.93062 c 0.04221,-0.49863 0.13275,-1.04857 0.201209,-1.22209 0.08786,-0.22269 0.07108,-0.28052 -0.05704,-0.19659 -0.09983,0.0654 -0.228771,0.42991 -0.286536,0.81001 -0.104434,0.68717 -0.105729,0.68833 -0.22867,0.20423 -0.068,-0.26776 -0.08188,-0.67573 -0.03084,-0.90658 0.12098,-0.54718 0.696034,-1.656 0.858831,-1.656 0.06977,0 0.126862,-0.11126 0.126862,-0.24725 0,-0.35157 0.272248,-0.30665 0.38298,0.0632 0.107837,0.36017 -0.10295,1.45007 -0.557833,2.88434 -0.416936,1.31462 -0.502383,1.37035 -0.408966,0.26674 z m 6.123306,-2.10951 c -0.0422,-0.0723 -0.0124,-0.23922 0.0662,-0.37088 0.11153,-0.1869 0.14337,-0.15807 0.14523,0.1315 0.002,0.38127 -0.0765,0.47071 -0.21142,0.23938 z m -2.55704,-1.21574 c 0.0858,-0.61863 2.56364,-2.12944 4.04462,-2.46613 1.30638,-0.297 1.38256,-0.13448 0.33684,0.71852 -0.65612,0.5352 -1.02811,0.98119 -1.20148,1.44052 -0.13812,0.36593 -0.32166,0.66532 -0.40788,0.66532 -0.20359,0 -0.20471,-1.10296 -0.001,-1.23626 0.0855,-0.056 0.1555,-0.18672 0.1555,-0.29043 0,-0.10371 -0.2624,0.0779 -0.58311,0.40365 -0.69806,0.70897 -1.43018,1.12304 -1.98564,1.12304 -0.32968,0 -0.39781,-0.0683 -0.35759,-0.35823 z m -5.859093,-0.96044 c -0.05286,-0.0907 -0.022,-0.16484 0.06857,-0.16484 0.09057,0 0.164671,0.0742 0.164671,0.16484 0,0.0906 -0.03086,0.16483 -0.06857,0.16483 -0.03771,0 -0.111816,-0.0742 -0.164672,-0.16483 z m 16.834853,-1.31868 c -0.22785,-0.67994 -0.64006,-2.12436 -0.91603,-3.20982 -0.27597,-1.08546 -0.52714,-1.89285 -0.55817,-1.79419 -0.031,0.0987 0.1588,1.05201 0.42181,2.11856 0.26302,1.06655 0.44958,1.96954 0.41457,2.00665 -0.035,0.0371 -0.45209,-0.56821 -0.92686,-1.34515 -1.04695,-1.71328 -1.2417,-2.79516 -0.81842,-4.54659 0.39153,-1.6201 0.83805,-2.16056 1.9652,-2.37862 0.46596,-0.0901 0.64014,-0.0331 1.07024,0.35055 l 0.51371,0.45822 -0.0819,-0.56879 c -0.13154,-0.91338 -0.56809,-2.02903 -0.91592,-2.34075 -0.18715,-0.16772 -0.5772,-0.28846 -0.93187,-0.28846 -0.53316,0 -0.65074,0.0732 -0.93347,0.58117 -0.17791,0.31965 -0.46905,0.66377 -0.64698,0.76472 -0.2815,0.1597 -0.3877,0.10247 -0.81799,-0.44083 l -0.49448,-0.62437 -0.77378,0.87358 c -1.21206,1.36837 -1.55832,0.57888 -0.50748,-1.15707 0.25563,-0.4223 0.46479,-0.83949 0.46479,-0.9271 0,-0.30512 1.01588,-1.19848 1.75797,-1.54595 1.19719,-0.56055 2.8201,-0.42933 3.56838,0.28852 0.15034,0.14423 0.30874,0.22472 0.352,0.17887 0.0433,-0.0459 -0.28288,-0.46661 -0.72475,-0.93501 -0.44186,-0.46841 -0.76583,-0.89146 -0.71992,-0.94012 0.2292,-0.24297 0.94595,0.17473 1.13862,0.66355 0.20424,0.51818 0.69274,1.08988 0.69118,0.80891 -4.4e-4,-0.0791 -0.17318,-0.44051 -0.38388,-0.80314 -0.2107,-0.36264 -0.38527,-0.77459 -0.38794,-0.91546 -0.006,-0.31568 -0.90024,-1.2368 -1.33471,-1.37481 -0.17553,-0.0558 -0.45189,0.002 -0.61413,0.12727 -0.25754,0.19964 -0.34891,0.18638 -0.72002,-0.10447 -0.33512,-0.26265 -0.55884,-0.31045 -1.05744,-0.22593 -0.66043,0.11195 -0.84289,-0.10213 -0.4458,-0.52307 0.14513,-0.15384 0.14221,-0.24359 -0.0131,-0.40384 -0.16081,-0.16592 -0.30248,-0.0811 -0.72737,0.43531 -0.42085,0.51153 -0.57157,0.60271 -0.74464,0.45045 -0.29901,-0.26306 -0.61096,-0.10093 -0.93923,0.48817 -0.34792,0.62435 -0.53611,0.56218 -0.80836,-0.26707 -0.25539,-0.7779 -0.28178,-1.78765 -0.0583,-2.23033 0.2461,-0.48747 0.47927,-0.39121 0.29525,0.12189 -0.16297,0.45436 -0.0665,1.30274 0.16549,1.4547 0.0722,0.0473 0.32336,-0.34126 0.55808,-0.86349 0.23473,-0.52223 0.60232,-1.20262 0.81687,-1.51198 0.38499,-0.55511 0.38562,-0.56123 0.0483,-0.46772 -0.72863,0.20199 -1.50715,-1.96089 -0.89854,-2.49633 0.15863,-0.13956 0.4209,-0.14061 1.02144,-0.004 0.4444,0.10103 0.84683,0.14254 0.89428,0.0922 0.20979,-0.22239 1.30826,0.62372 2.34322,1.80489 0.61898,0.70642 1.12542,1.30481 1.12542,1.32975 0,0.0249 -0.24762,-0.10952 -0.55025,-0.29881 -0.63249,-0.39559 -1.38944,-0.33881 -2.51416,0.18859 -0.60581,0.28407 -0.66746,0.36712 -0.66746,0.89917 0,0.3224 0.0293,0.58619 0.0651,0.58619 0.0358,0 0.21642,-0.25962 0.40141,-0.57692 0.185,-0.31731 0.40475,-0.57692 0.48835,-0.57692 0.0836,0 0.11333,0.0663 0.0661,0.14732 -0.10985,0.18842 0.33759,1.33619 0.5209,1.33619 0.076,0 0.20957,-0.21704 0.2968,-0.4823 0.2058,-0.62581 0.83134,-1.0649 1.30253,-0.91428 0.94794,0.30302 2.16965,2.20436 2.76426,4.302 0.33455,1.18022 0.3829,2.74532 0.0822,2.66023 -0.0849,-0.024 -0.1345,-0.15497 -0.11014,-0.29096 0.031,-0.1729 0.006,-0.18824 -0.0823,-0.051 -0.0918,0.14228 -0.31221,0.064 -0.80186,-0.28455 -1.14875,-0.81785 -2.5645,-0.86885 -3.9767,-0.14327 -0.59169,0.30402 -0.93277,0.64618 -1.46317,1.46785 -0.44402,0.68784 -0.55748,0.94555 -0.31691,0.71982 0.35078,-0.32914 1.26473,-0.88466 1.45545,-0.88466 0.047,0 0.0855,0.18454 0.0855,0.41009 0,0.35029 0.0647,0.40437 0.44395,0.37088 0.51707,-0.0457 1.31688,-0.94446 1.17912,-1.32503 -0.0491,-0.13572 -0.007,-0.30062 0.0934,-0.36646 0.13569,-0.0889 0.12842,-0.15615 -0.0283,-0.2614 -0.12956,-0.087 0.20612,-0.14268 0.86986,-0.14423 l 1.08083,-0.003 0.87487,0.95367 c 0.64862,0.70704 0.92203,1.1522 1.05722,1.72134 0.41859,1.76225 0.0599,3.86982 -0.78535,4.61447 -0.28023,0.24687 -0.62391,0.45086 -0.76373,0.45329 -0.29105,0.005 -0.75409,-0.66531 -0.76143,-1.10239 -0.009,-0.54939 -0.43871,0.25598 -0.54782,1.02728 -0.1128,0.79739 0.23535,3.34751 0.70847,5.18941 0.43507,1.69375 0.3142,2.00507 -0.19199,0.4945 z m -1.04813,-7.50453 c 0.42446,-0.47895 1.16557,-0.67811 1.48328,-0.3986 0.28192,0.24803 0.45254,0.10341 0.31764,-0.26925 -0.0808,-0.22327 -0.25734,-0.26067 -0.94486,-0.20023 -0.46501,0.0409 -0.80965,0.0129 -0.76587,-0.0622 0.18474,-0.31687 -0.25318,-0.10463 -0.47415,0.2298 -0.17232,0.26079 -0.23647,0.72385 -0.22266,1.60713 l 0.0194,1.24079 0.12062,-0.8785 c 0.075,-0.54609 0.25154,-1.02623 0.46661,-1.26892 z m 2.37508,0.38254 -0.1576,-0.5428 -0.18114,0.47334 c -0.13835,0.36154 -0.13783,0.52866 0.002,0.70754 0.30736,0.39259 0.51918,-0.009 0.33653,-0.63808 z m 0.37425,-0.99417 c -0.0372,-0.20504 -0.069,-0.0761 -0.0708,0.28654 -0.002,0.36263 0.0287,0.53039 0.0676,0.37279 0.0389,-0.15759 0.0403,-0.45429 0.003,-0.65933 z m -0.16249,-0.99093 c -0.0431,-0.11332 -0.0784,-0.0206 -0.0784,0.20604 0,0.22665 0.0353,0.31937 0.0784,0.20605 0.0431,-0.11333 0.0431,-0.29877 0,-0.41209 z m -1.32385,-8.58735 c -0.75561,-0.82641 -1.88626,-1.11223 -2.09699,-0.53009 -0.0517,0.1429 0.1896,0.27456 0.74459,0.40622 0.45163,0.10714 0.95297,0.30061 1.1141,0.42993 0.58068,0.46606 0.74789,0.2513 0.2383,-0.30606 z m -3.17184,-3.59592 c -0.23519,-0.0911 -0.42761,-0.27064 -0.42761,-0.39908 0,-0.30013 0.21383,-0.29523 0.78519,0.018 0.66063,0.36215 0.56437,0.15695 -0.16709,-0.35618 -0.46161,-0.32383 -0.91047,-0.4667 -1.71043,-0.54443 -0.99041,-0.0962 -1.08459,-0.0787 -1.08459,0.20214 0,0.16913 0.20453,0.52433 0.45452,0.78934 0.41698,0.44202 0.5422,0.48075 1.51607,0.46881 0.89915,-0.011 0.99613,-0.0383 0.63394,-0.17857 z m 1.50392,21.70593 c -0.26046,-0.42139 -1.33958,-1.33232 -2.4592,-2.07591 -1.00107,-0.66485 -1.98829,-1.00441 -2.7483,-0.94528 l -0.68914,0.0536 0.50438,0.3282 c 0.64209,0.41782 0.65311,0.74029 0.0253,0.74029 -0.35882,0 -0.50287,-0.0885 -0.56695,-0.34823 -0.0792,-0.321 -0.157,-0.33971 -0.99489,-0.23922 -0.90278,0.10827 -0.91302,0.10465 -1.50165,-0.53195 -0.32597,-0.35253 -0.56455,-0.73043 -0.53017,-0.83977 0.0344,-0.10934 -0.0601,-0.67877 -0.20984,-1.2654 -0.21285,-0.83354 -0.23432,-1.15511 -0.0983,-1.47166 l 0.1741,-0.40506 0.49727,0.48147 c 0.65484,0.63403 1.36556,0.95358 1.52242,0.68452 0.0631,-0.10819 0.22048,-0.15368 0.34978,-0.10109 0.22274,0.0906 1.01036,-0.70484 1.48386,-1.49861 0.1861,-0.31196 0.19238,-0.31191 0.42761,0.003 0.13131,0.17598 0.23874,0.51539 0.23874,0.75423 0,0.25291 0.1664,0.59998 0.39844,0.83107 0.21915,0.21824 0.54771,0.65767 0.73015,0.97653 0.18245,0.31885 0.85091,1.21022 1.48548,1.98082 1.09849,1.33395 2.46389,3.29668 2.29339,3.29668 -0.044,0 -0.19361,-0.18387 -0.33252,-0.4086 z m -5.96883,-4.77434 c -0.14563,-0.27633 -0.36389,-0.50999 -0.48503,-0.51923 -0.12114,-0.009 -0.48244,-0.0281 -0.8029,-0.0419 -0.43114,-0.0186 -0.74452,-0.18012 -1.20509,-0.62121 l -0.62242,-0.5961 v 0.42793 c 0,0.23537 0.1106,0.72097 0.24579,1.07912 0.26565,0.70381 0.77436,1.00383 1.70205,1.00383 0.27609,0 0.58794,0.10978 0.69299,0.24396 0.16577,0.21174 0.22721,0.19655 0.46519,-0.115 0.25921,-0.33933 0.25972,-0.38642 0.009,-0.86138 z m 2.12012,0.0214 c -0.39091,-0.58071 -0.79397,-1.40622 -0.89569,-1.83446 -0.19564,-0.82362 -0.44556,-0.7585 -0.45013,0.11728 -0.002,0.40371 -0.0471,0.44454 -0.38967,0.3534 -0.28428,-0.0756 -0.41493,-0.0267 -0.49123,0.1841 -0.1518,0.41935 0.0996,0.73766 0.96504,1.22181 0.42278,0.23652 1.01036,0.59229 1.30573,0.7906 0.29536,0.1983 0.5662,0.32963 0.60186,0.29183 0.0357,-0.0378 -0.255,-0.54385 -0.64591,-1.12456 z m 2.53916,-15.2831 c 0,-0.0878 0.10495,-0.15967 0.23324,-0.15967 0.12828,0 0.23324,0.0292 0.23324,0.0648 0,0.0356 -0.10496,0.10747 -0.23324,0.15966 -0.12829,0.0522 -0.23324,0.023 -0.23324,-0.0648 z m -3.43297,-0.46539 c 0.0828,-0.16407 0.25521,-0.39034 0.38306,-0.50281 0.20285,-0.17846 0.20888,-0.15087 0.0474,0.21664 -0.1018,0.23164 -0.27417,0.45791 -0.38305,0.50282 -0.14683,0.0606 -0.15907,0.005 -0.0474,-0.21665 z m 7.7257,-10.0099 c -0.0519,-0.1434 -0.0944,-0.41166 -0.0944,-0.59614 0,-0.25108 0.076,-0.31434 0.30238,-0.25159 0.22012,0.061 0.31843,-0.0122 0.36138,-0.26924 0.0546,-0.32681 0.0684,-0.3305 0.18616,-0.0496 0.0807,0.19259 0.0348,0.50872 -0.12562,0.86538 -0.27461,0.61045 -0.48206,0.70965 -0.62991,0.3012 z m -0.30171,-1.33266 c -0.057,-0.0604 -0.10259,-0.19025 -0.10128,-0.28846 0.001,-0.0982 0.0702,-0.0673 0.15311,0.0687 0.12583,0.2064 0.15486,0.19279 0.17572,-0.0824 0.0137,-0.18132 0.009,-0.57027 -0.01,-0.86435 -0.0218,-0.33641 0.0851,-0.69611 0.28838,-0.97002 0.17767,-0.23944 0.32411,-0.36971 0.32542,-0.28949 0.004,0.24301 0.30367,-0.33068 0.30623,-0.5862 0.002,-0.17049 -0.0656,-0.14723 -0.23839,0.0824 -0.1996,0.26525 -0.19691,0.22425 0.0157,-0.23975 0.36795,-0.803002 0.56578,-0.366185 0.44012,0.9718 -0.0787,0.83838 -0.20046,1.20587 -0.55964,1.68955 -0.46089,0.62066 -0.60364,0.71184 -0.7957,0.50824 z M -17.641584,7.1721937 c -0.272553,-0.7529228 0.06067,-2.8912085 0.45056,-2.8912085 0.04276,0 -0.03261,0.2262334 -0.167499,0.5027409 -0.257374,0.5276011 -0.192876,1.0428457 0.180027,1.4381474 0.272546,0.2889164 0.265295,0.3672122 -0.07781,0.8401759 -0.250463,0.3452584 -0.295507,0.3581358 -0.385278,0.1101443 z m 0.364827,-1.6460894 c 0,-0.2428507 0.198603,-0.5424011 0.545665,-0.8230187 0.700262,-0.5661974 1.202146,-1.588058 1.077476,-2.1937929 -0.07187,-0.349217 -0.05523,-0.3966846 0.07234,-0.2063182 0.219391,0.3273865 0.215157,1.2517983 -0.0078,1.6933339 -0.09802,0.1941429 -0.51785,0.7036786 -0.932966,1.1323014 -0.681202,0.7033659 -0.754757,0.7421039 -0.754757,0.3974945 z m -0.165174,-2.3165416 c -0.113272,-0.2719764 -0.313457,-0.6304417 -0.444856,-0.7965893 -0.177442,-0.2243656 -0.226,-0.5982903 -0.188735,-1.45337216 0.03222,-0.73931907 -0.04782,-1.53503719 -0.223674,-2.22372184 -0.242418,-0.9493576 -0.251378,-1.2271172 -0.07807,-2.4202323 0.245775,-1.6920467 0.633212,-3.2433896 0.810014,-3.2433896 0.177682,0 0.174255,0.024991 -0.09824,0.7163296 -0.128283,0.3254657 -0.233242,0.7481801 -0.233242,0.9393654 0,0.3167443 0.03413,0.3046136 0.384363,-0.1366174 0.2114,-0.2663249 0.446257,-0.6614369 0.521904,-0.8780266 0.157005,-0.4495265 0.07234,-0.855242 -0.148308,-0.7106838 -0.08871,0.05812 -0.10787,-0.074125 -0.04761,-0.3286415 0.115859,-0.4893475 -0.144731,-0.5831156 -0.38195,-0.1374369 -0.123241,0.2315424 -0.192391,0.2476708 -0.350453,0.08174 -0.259645,-0.2725718 -0.182935,-1.3669133 0.111832,-1.5953989 0.127571,-0.098885 0.363237,-0.6239664 0.523701,-1.166847 0.160464,-0.54288 0.325804,-0.875792 0.367422,-0.739804 0.421796,1.3782474 0.841801,2.522352 1.16151,3.1639872 0.363126,0.728771 0.375799,0.8392891 0.217366,1.8955937 -0.09253,0.6169365 -0.214678,1.2885974 -0.271432,1.4925798 -0.166878,0.5997829 0.214223,0.4360151 0.464806,-0.1997377 0.123699,-0.3138381 0.272293,-0.9055785 0.330208,-1.3149788 l 0.105299,-0.744364 0.704177,0.4374629 0.704177,0.4374629 1.299662,-0.2863501 c 0.714814,-0.1574925 1.376428,-0.2360559 1.470254,-0.1745853 0.09383,0.061471 0.13872,0.2885087 0.09976,0.504529 -0.08969,0.4973421 0.368731,0.540424 0.8069905,0.075841 0.2528602,-0.2680484 0.3127779,-0.2787689 0.3885261,-0.069515 0.052917,0.1461818 -0.098383,0.4466401 -0.3697917,0.7343515 -0.4439059,0.470569 -0.4938639,0.4831948 -1.4856949,0.3754751 -0.962111,-0.1044919 -1.031799,-0.089352 -1.113518,0.241909 -0.135329,0.5485822 -0.766066,0.4647353 -1.061616,-0.1411256 -0.132675,-0.2719765 -0.311865,-0.4945027 -0.3982,-0.4945027 -0.09803,0 -0.08868,0.1352714 0.02492,0.3602724 0.228718,0.4530342 0.06741,3.2312864 -0.231673,3.99008027 -0.230144,0.58389508 -0.762993,1.02002193 -1.439146,1.17791195 -0.865013,0.20199121 -0.863621,0.20032305 -0.577042,0.69125888 0.146487,0.2509446 -0.165951,-0.016343 -0.694305,-0.59397166 l -0.960644,-1.05023452 v 0.54199564 c 0,0.2980976 0.03931,0.50032992 0.08735,0.44940516 0.04804,-0.0509248 0.257604,0.0746793 0.4657,0.27912016 0.416124,0.40881512 0.846732,1.53420732 0.845823,2.21055452 -5.81e-4,0.4323006 -7.73e-4,0.4322363 -0.308703,-0.1031412 -0.169467,-0.2946411 -0.374993,-0.5357112 -0.456725,-0.5357112 -0.259801,0 -0.35588,0.3356079 -0.165642,0.5785983 0.100969,0.1289687 0.151154,0.3297019 0.11152,0.4460735 -0.04161,0.1221663 -0.159097,0.0026 -0.278008,-0.2829178 z m 0.124194,-1.6984793 c -0.126186,-0.1537423 -0.268022,-0.3907945 -0.31519,-0.52678279 -0.04717,-0.13598824 -0.09129,-0.0219661 -0.09804,0.25338249 -0.0097,0.3955156 0.05648,0.5061243 0.315191,0.5267827 0.294821,0.023542 0.304594,-0.00172 0.09804,-0.2533824 z m 2.470054,-1.92585202 c 0.66102,-0.45913269 0.821379,-1.12562408 0.723566,-3.00732718 -0.07765,-1.4937344 -0.128418,-1.7203159 -0.459341,-2.0498759 l -0.372048,-0.3705146 0.245757,0.6235091 c 0.135167,0.34293 0.286342,1.0842268 0.335946,1.6473262 0.08533,0.9686148 0.06014,1.0736059 -0.467043,1.9472329 -0.670765,1.11155655 -1.205141,1.38624928 -1.951412,1.00310994 -0.619423,-0.31801456 -0.505563,-0.48992274 0.137478,-0.20756777 0.26205,0.11506454 0.512769,0.17071257 0.557153,0.12366228 0.04438,-0.0470503 -0.123161,-0.16088068 -0.372324,-0.25295642 -0.60006,-0.22174673 -1.196079,-1.47499593 -1.055596,-2.21960173 0.13351,-0.7076467 0.500392,-1.261682 0.957477,-1.445904 0.454774,-0.1832901 1.035803,-1.3282685 0.729635,-1.4378201 -0.106902,-0.038251 -0.194368,-0.3088033 -0.194368,-0.6012267 0,-0.2924234 -0.09428,-0.6683576 -0.209509,-0.8354094 -0.186055,-0.2697292 -0.219386,-0.1882573 -0.297743,0.7277827 -0.06825,0.7979101 -0.177029,1.1301984 -0.480323,1.467274 -0.585062,0.6502276 -0.722863,1.2045416 -0.722863,2.9077806 0,1.4974987 0.01287,1.55352329 0.42761,1.86136014 0.235185,0.17456444 0.532568,0.3629418 0.660851,0.41861636 0.377113,0.16366631 1.379477,-0.002434 1.807097,-0.29945042 z m -1.651603,-0.98129908 c 0,-0.039979 -0.06997,-0.118532 -0.155494,-0.1745623 -0.08552,-0.05603 -0.155494,-0.02332 -0.155494,0.072689 0,0.096009 0.06997,0.1745623 0.155494,0.1745623 0.08552,0 0.155494,-0.03271 0.155494,-0.072689 z m 1.645662,-1.0140553 c 0.05442,-0.3075136 0.05753,-0.6735225 0.0069,-0.8133532 -0.08087,-0.2233936 -0.134817,-0.2255072 -0.444695,-0.017422 -0.193965,0.1302489 -0.580073,0.2870786 -0.858019,0.3485105 -0.277947,0.061432 -0.505357,0.2055676 -0.505357,0.3203015 0,0.4927312 1.169307,1.1760017 1.511955,0.8834924 0.104639,-0.089328 0.23478,-0.4140161 0.289201,-0.7215297 z m 2.241697,-2.5396087 c 0,-0.090659 -0.134222,-0.1648342 -0.298271,-0.1648342 -0.164049,0 -0.426446,-0.050976 -0.583104,-0.1132792 -0.250735,-0.099718 -0.259285,-0.079986 -0.07142,0.1648342 0.229583,0.2991941 0.9528,0.3851779 0.9528,0.1132792 z m 2.6434038,-1.401091 C -10.074988,-6.4868109 -10.291365,-6.598074 -10.44936,-6.598074 c -0.263516,0 -0.256615,-0.047874 0.08347,-0.5791194 0.203903,-0.3185157 0.4189958,-0.8819447 0.4779839,-1.2520644 0.065441,-0.4106074 0.1631323,-0.6137073 0.2505967,-0.5209893 0.087464,0.092718 0.04819,0.5869046 -0.100747,1.2676814 -0.1872588,0.8559438 -0.2018684,1.1696587 -0.062746,1.3473601 0.099741,0.1273988 0.1463604,0.2316343 0.1035995,0.2316343 -0.042761,0 -0.1648552,-0.1112631 -0.2713205,-0.2472514 z m -3.4208758,-0.1648342 -0.54423,-0.2221709 0.50221,-0.01254 c 0.732117,-0.018281 1.7564,-0.4823838 2.335562,-1.0582433 0.546249,-0.5431345 0.629513,-0.4125461 0.28854,0.4525349 -0.408283,1.0358523 -1.351401,1.3428197 -2.582082,0.8404195 z m -1.166207,-0.8836038 c -0.742713,-0.4863259 -0.999951,-0.8895072 -1.502719,-2.355278 -0.621862,-1.8129803 -0.705448,-2.1679903 -0.80921,-3.4369043 l -0.08761,-1.071423 0.422299,0.515528 c 0.749881,0.915428 3.261492,2.0092 3.535293,1.539571 0.05781,-0.09915 -0.01249,-0.318028 -0.156224,-0.486389 -0.288557,-0.338004 -1.663875,-0.748927 -2.020733,-0.603762 -0.246807,0.100397 -1.105986,-0.918678 -1.541957,-1.82892 l -0.255912,-0.534304 0.718972,0.483346 c 0.905975,0.609063 2.116461,0.799943 2.87372,0.453151 0.767304,-0.351391 1.072587,-0.637846 1.152795,-1.081695 0.102364,-0.566459 0.857519,-1.128978 0.859947,-0.640579 5.64e-4,0.113323 0.128988,0.411763 0.285388,0.663198 l 0.284363,0.457156 0.414337,-0.345494 c 0.4730851,-0.394481 0.5687564,-0.191134 0.114918,0.244255 -0.39902,0.382798 -0.818681,0.273066 -1.068458,-0.279377 -0.288618,-0.638353 -0.498055,-0.559577 -0.498055,0.187334 0,0.351238 -0.105706,0.956211 -0.234902,1.344387 -0.129196,0.388175 -0.201352,0.741338 -0.160347,0.784806 0.105371,0.1117 0.662742,-0.317745 1.522583,-1.173124 0.7269316,-0.72316 0.7385886,-0.727888 0.7380166,-0.299344 -9.438e-4,0.706979 -0.5542346,1.468881 -1.4220126,1.958163 -0.444099,0.250398 -0.977174,0.640708 -1.18461,0.867355 -0.464512,0.507531 -1.384084,0.54655 -2.257555,0.09579 -0.323765,-0.16708 -0.615411,-0.275429 -0.648102,-0.240774 -0.128367,0.136077 0.400503,1.9014 0.697752,2.3290359 0.173296,0.2493118 0.239835,0.4532942 0.147866,0.4532942 -0.18812,0 -0.712707,-0.5348094 -1.131785,-1.1538401 l -0.278978,-0.412085 0.08009,0.421704 c 0.04405,0.231938 0.184968,0.6877809 0.313148,1.0129852 0.457255,1.1600973 2.646,1.8455831 3.826554,1.1984254 0.371991,-0.2039181 0.458762,-0.2093527 0.458762,-0.028733 0,0.2522465 -0.531597,0.8065653 -1.039365,1.0837901 -0.520602,0.2842323 -1.62414,0.221947 -2.148269,-0.1212515 z m 2.099173,-6.7811883 c 0.458965,-0.486533 0.377825,-0.721107 -0.11662,-0.337147 -0.235186,0.182632 -0.812458,0.398707 -1.282829,0.480167 l -0.855219,0.14811 0.97184,0.01927 c 0.780216,0.01547 1.033159,-0.04573 1.282828,-0.310399 z m -1.005533,5.3815112 c -0.270353,-0.2095608 -0.261963,-0.2296474 0.140648,-0.3367661 0.249545,-0.066394 0.51613,-0.03651 0.639055,0.071637 0.294136,0.2587738 0.779928,0.05763 1.479938,-0.6127734 0.720427,-0.6899568 1.28546,-0.7036508 1.3588341,-0.032933 0.029953,0.273804 -0.041291,0.4682685 -0.1943681,0.530538 -0.178324,0.072539 -0.241653,-0.00834 -0.241653,-0.3086114 0,-0.5526346 -0.529828,-0.5443976 -0.874725,0.013598 -0.498686,0.806806 -1.688797,1.1550682 -2.307729,0.6753102 z m 1.938499,-5.8760132 c 0,-0.09066 0.0741,-0.164835 0.164672,-0.164835 0.09057,0 0.121425,0.07418 0.06857,0.164835 -0.05286,0.09066 -0.126958,0.164834 -0.164671,0.164834 -0.03771,0 -0.06857,-0.07418 -0.06857,-0.164834 z m -4.358512,-0.700546 c -1.018845,-0.54562 -1.394778,-1.242041 -1.394778,-2.583839 0,-1.272941 0.22219,-1.714443 0.999704,-1.986459 0.514819,-0.180111 0.535774,-0.221027 0.63961,-1.24887 0.05904,-0.584462 0.0787,-1.539688 0.04368,-2.122723 -0.03502,-0.583036 -0.0071,-1.022987 0.06209,-0.977671 0.06917,0.04532 0.296331,0.429626 0.504804,0.854021 0.400894,0.816112 0.497659,0.621504 0.25094,-0.504676 -0.192548,-0.878912 0.06501,-0.610934 0.443504,0.461448 0.342889,0.971501 0.450133,3.100929 0.16556,3.287368 -0.198745,0.130209 -0.203891,0.741754 -0.0062,0.741754 0.291148,0 0.506001,-1.283278 0.450851,-2.692852 -0.03073,-0.785429 -0.03974,-1.428041 -0.02003,-1.428028 0.118763,7.9e-5 1.009576,2.277097 1.158613,2.961544 0.251603,1.155476 0.01428,1.871554 -0.95603,2.884683 l -0.782655,0.817191 v -0.859184 c 0,-0.47255 -0.03932,-0.859183 -0.08738,-0.859183 -0.04806,0 -0.467892,0.190825 -0.932966,0.424056 -1.002893,0.502942 -1.079661,0.854337 -0.439589,2.012141 0.400305,0.724098 0.415712,0.733241 1.098142,0.651701 0.415233,-0.04961 0.838242,-0.228198 1.057324,-0.446378 0.20085,-0.200022 0.476209,-0.33842 0.611909,-0.30755 0.448626,0.102055 -0.376774,0.988269 -0.966234,1.037425 -0.276702,0.02307 -0.548305,0.08988 -0.603562,0.148456 -0.183708,0.194742 -0.597361,0.110442 -1.297262,-0.264375 z m 0.610595,-3.591767 c 0.689597,-0.529547 0.97237,-1.001604 0.665037,-1.110202 -0.101441,-0.03584 -0.139277,-0.142635 -0.08408,-0.237312 0.248724,-0.426617 -0.270427,0.02678 -0.854225,0.746033 -0.96927,1.194163 -0.847521,1.462143 0.273266,0.601481 z m 2.488463,-0.611506 c -0.0085,-0.249311 -0.06887,-0.638732 -0.134091,-0.865379 -0.102626,-0.35661 -0.134239,-0.373086 -0.234827,-0.122385 -0.143823,0.358458 0.03345,1.441058 0.235969,1.441058 0.08165,0 0.141474,-0.203982 0.132949,-0.453294 z m -2.47241,-0.884835 c 0,-0.09066 -0.06997,-0.118992 -0.155494,-0.06296 -0.08552,0.05603 -0.155495,0.176049 -0.155495,0.266708 0,0.09066 0.06997,0.118991 0.155495,0.06296 0.08552,-0.05603 0.155494,-0.176049 0.155494,-0.266707 z m 7.4910427,1.680004 c -0.2237975,-0.680547 -0.8371144,-1.082686 -1.2735856,-0.835063 -0.275481,0.156289 -0.3728166,0.136637 -0.5543001,-0.11191 -0.427658,-0.585692 -1.149635,-1.867415 -1.051888,-1.867415 0.05448,0 0.444465,0.342495 0.8666302,0.7611 0.5474096,0.542793 0.8155176,0.710275 0.9347268,0.583906 0.1192093,-0.12637 0.1100627,-0.250118 -0.031888,-0.431432 -0.387341,-0.494751 0.015386,-0.245233 0.6538395,0.4051 0.7036226,0.716714 1.0028262,0.849984 0.7401403,0.329668 -0.095298,-0.188761 -0.1042653,-0.329668 -0.02098,-0.329668 0.211924,0 0.5365096,-1.583582 0.4229211,-2.063339 -0.115937,-0.489676 -0.2994489,-0.503429 -1.8617295,-0.139524 -0.8654368,0.201588 -1.136521,0.327988 -1.073976,0.500767 0.088847,0.245438 -0.962744,-0.33525 -1.131594,-0.624865 -0.0484,-0.08301 -0.156209,-0.106239 -0.239583,-0.05162 -0.08337,0.05462 -0.313028,-0.01282 -0.510345,-0.149873 -0.197316,-0.137052 -0.596581,-0.273252 -0.887254,-0.302667 -0.410753,-0.04157 -0.539568,-0.13611 -0.578186,-0.424359 -0.03342,-0.249456 0.03021,-0.370877 0.194368,-0.370877 0.318945,0 0.310716,-0.231822 -0.0183,-0.515528 -0.229746,-0.198108 -0.249679,-0.190373 -0.160374,0.06223 0.05609,0.158653 0.0342,0.288459 -0.04863,0.288459 -0.182992,0 -0.192663,-0.333862 -0.01812,-0.62553 0.09567,-0.159877 0.319261,-0.04567 0.890879,0.455061 1.115401,0.977078 1.913947,1.262417 2.8334168,1.012449 1.5562018,-0.423072 2.143936,-0.518318 2.5184783,-0.408134 0.2138047,0.0629 0.4762014,0.09903 0.5831038,0.08028 0.2211338,-0.03877 0.2783928,1.059709 0.062607,1.201083 -0.072468,0.04748 -0.1786524,0.844836 -0.2359644,1.771906 -0.074788,1.209759 -0.1760798,1.769775 -0.358822,1.983832 -0.3489662,0.408765 -0.4611606,0.37678 -0.6455881,-0.184047 z m -8.8904917,-1.742966 c 0.200859,-0.226647 0.391254,-0.412085 0.4231,-0.412085 0.129184,0 -0.511617,0.814199 -0.644573,0.818991 -0.07905,0.0028 0.02061,-0.180258 0.221473,-0.406906 z m -0.777472,-1.793889 c 0,-0.176898 0.462655,-1.09071 0.552217,-1.09071 0.04276,0 -0.03791,0.24107 -0.179263,0.535712 -0.288634,0.601628 -0.372954,0.727106 -0.372954,0.554998 z m 15.2871024,-2.422523 c -0.5379198,-0.169054 -1.0899716,-0.801767 -1.2353682,-1.41587 l -0.091494,-0.386438 -0.565978,0.490378 c -0.311288,0.269708 -0.7523899,0.688565 -0.9802265,0.930794 -0.2774474,0.294974 -0.5037693,0.404001 -0.6853277,0.330145 -0.2484547,-0.101067 -0.2430809,-0.137922 0.064386,-0.441577 0.3473946,-0.343087 0.4393272,-0.648132 0.1953302,-0.648132 -0.077074,0 -0.2846319,0.259614 -0.461239,0.57692 -0.3703728,0.66544 -0.7980749,0.769176 -0.7980749,0.193567 0,-0.210844 -0.1749311,-0.557563 -0.3887359,-0.770487 -0.5436717,-0.541432 -0.5265651,-1.313897 0.038874,-1.755379 0.9039741,-0.705801 1.1821794,-0.759237 0.5302804,-0.101851 -0.4435446,0.447278 -0.6219597,0.745328 -0.5557109,0.928339 0.1470787,0.406303 0.3187662,0.331146 0.7962733,-0.348574 0.2388311,-0.339971 1.030494,-1.25127 1.7592509,-2.025109 0.9726969,-1.03287 1.3695521,-1.580729 1.4925201,-2.060428 0.1562226,-0.609424 0.1646389,-0.574428 0.1249255,0.519468 -0.02342,0.645104 -0.1107645,1.461034 -0.1940986,1.813177 -0.3328531,1.406532 -0.3389334,1.491904 -0.1062543,1.491904 0.2112206,0 0.5836194,-1.401822 0.7517074,-2.829654 0.042956,-0.364893 0.067185,-0.300089 0.092441,0.247251 0.050502,1.09445 0.2977116,1.612206 0.3148098,0.659337 0.010269,-0.572263 0.051195,-0.685257 0.179107,-0.494503 0.1201213,0.179136 0.141407,-0.138737 0.077264,-1.153839 -0.086699,-1.372074 -0.082936,-1.392166 0.1816842,-0.970138 0.6015245,0.959334 1.28093035,1.831937 1.28093035,1.645177 0,-0.109226 -0.28026023,-0.691183 -0.62280052,-1.293236 -0.35847643,-0.630063 -0.58721073,-1.213511 -0.53894383,-1.374721 0.1205184,-0.402528 -0.3515414,-1.587667 -1.0004819,-2.511779 -0.5352436,-0.762204 -2.3770948,-2.233478 -3.0411725,-2.429294 -0.1780484,-0.0525 -0.2981386,-0.207974 -0.2743581,-0.355194 0.05348,-0.33108 -0.7832579,-0.876157 -1.5742514,-1.025515 -0.329446,-0.06221 -0.5616849,-0.152653 -0.5160863,-0.20099 0.2057462,-0.218105 1.7542872,0.308787 2.0774936,0.706867 0.3556328,0.438019 0.9035177,0.480032 0.9035177,0.06928 0,-0.129287 -0.3848485,-0.565797 -0.8552189,-0.970023 -0.4703704,-0.404225 -0.8756694,-0.788974 -0.9006644,-0.854997 -0.095517,-0.252304 0.4633911,-0.30202 1.7784239,-0.158195 0.7499176,0.08202 1.3856467,0.125634 1.4127313,0.09692 0.027084,-0.02871 0.00513,-0.174083 -0.048799,-0.323047 -0.075045,-0.20731 -0.3221129,-0.275418 -1.053247,-0.290346 -0.5253619,-0.01073 -1.1651208,-0.07134 -1.4216865,-0.134697 -0.3840688,-0.09484 -0.2719928,-0.137537 0.6343754,-0.24166 0.7024774,-0.0807 1.3347299,-0.05971 1.7471224,0.05801 0.5616645,0.160325 0.6419106,0.240232 0.6130088,0.610422 -0.01829,0.234271 -0.1260597,0.4637 -0.2394876,0.509841 -0.1533084,0.06236 -0.1168087,0.184797 0.1422308,0.477094 0.2600162,0.293399 0.3036509,0.440706 0.1719118,0.580358 -0.1317392,0.139652 -0.3180877,0.05542 -0.7341747,-0.331851 -0.4586341,-0.426874 -0.6877784,-0.518435 -1.2908107,-0.515782 l -0.7331875,0.0032 0.6608509,0.587364 c 0.8078302,0.718 0.8917363,1.477142 0.194368,1.758551 -0.1282829,0.05177 0.048572,0.09998 0.393011,0.107133 0.3464525,0.0072 0.7882831,-0.107294 0.9889117,-0.256261 0.3503248,-0.260116 0.3589577,-0.256911 0.2538249,0.09423 -0.072117,0.240867 -0.020278,0.467236 0.1536547,0.670973 0.144369,0.169108 0.2236824,0.374031 0.1762519,0.455385 -0.04743,0.08135 0.2256048,0.472349 0.606745,0.868878 0.7379369,0.767731 0.8360797,0.764458 0.4557474,-0.0152 -0.3386976,-0.69431 -0.1461195,-0.601286 0.2975361,0.143724 0.5007661,0.840913 1.21318145,3.245711 1.20505616,4.067735 -0.003584,0.362635 0.0950922,1.025133 0.21928151,1.472217 0.1241893,0.447084 0.22579872,0.88224 0.22579872,0.967013 0,0.156133 -0.47441502,0.09365 -0.97183967,-0.127989 -0.23325602,-0.103935 -0.27211512,-0.02568 -0.27211512,0.547966 0,0.368069 -0.079457,0.854081 -0.1765712,1.080026 -0.1261879,0.293587 -0.1309057,0.601523 -0.016534,1.079178 0.088021,0.367603 0.1393628,0.66837 0.1140938,0.66837 -0.025269,0 -0.1878578,-0.237601 -0.3613083,-0.528002 l -0.3153646,-0.528002 -0.1026812,0.433688 c -0.1926653,0.813748 0.2056873,1.34846 1.01385956,1.360911 0.12839661,0.002 0.23324152,0.151686 0.23324152,0.333045 0,0.385505 -0.62204838,0.487353 -1.42854008,0.233894 z m -2.7665352,-2.464075 c 0.2190366,-0.31472 0.4806924,-0.572219 0.5814575,-0.572219 0.2233828,0 1.2034554,-1.962851 1.2034554,-2.410234 0,-0.341962 -0.2810344,-0.04544 -1.3266624,1.399791 -1.1056756,1.528223 -1.3043663,1.851384 -1.3103739,2.131265 -0.00875,0.407762 0.3450472,0.179983 0.8521234,-0.548603 z m -0.5475023,-3.2718 c 0,-0.07956 0.1164146,-0.246453 0.258699,-0.370877 0.2345793,-0.205134 0.241318,-0.191648 0.072276,0.144651 -0.192799,0.383562 -0.3309753,0.478007 -0.3309753,0.226226 z m 6.6746223,-2.200373 c -0.68291419,-0.552163 -1.20151299,-1.229319 -2.11542318,-2.762195 -0.62755322,-1.052577 -0.33623792,-0.852483 1.43764258,0.987464 0.8240406,0.854732 1.3958135,1.324511 1.5690348,1.289148 0.2285554,-0.04666 0.1899819,-0.148608 -0.2390262,-0.631735 -0.2813596,-0.316853 -0.4666068,-0.464834 -0.4116605,-0.328846 0.054946,0.135989 -0.1315236,-0.04051 -0.4143775,-0.392223 -0.28285397,-0.35171 -0.82915599,-1.014909 -1.2140045,-1.473773 l -0.69972456,-0.8343 0.62197739,0.395782 c 0.34208756,0.21768 1.13752667,0.750567 1.76764247,1.184193 1.7807647,1.225467 2.9522585,1.394912 4.3643316,0.631255 0.8155411,-0.441049 0.9262171,-0.667905 0.2708471,-0.555165 -0.8645866,0.14873 -1.909978,-0.61155 -1.6996599,-1.23611 0.1561739,-0.463773 -0.6469647,-0.105379 -0.9337519,0.416679 l -0.2891909,0.526434 0.4679634,0.256528 c 0.2573798,0.141091 0.7554576,0.256529 1.1068394,0.256529 0.3863216,0 0.6008864,0.06516 0.5427752,0.164834 -0.1253119,0.214938 -1.395128,0.210046 -2.1365606,-0.0082 -0.3198894,-0.09417 -0.8814514,-0.446094 -1.2479156,-0.782043 -0.3664641,-0.335948 -1.45170617,-1.232422 -2.411649,-1.992164 -0.9599428,-0.759742 -1.7453506,-1.41019 -1.7453506,-1.44544 0,-0.03525 0.1924242,-0.01448 0.4276094,0.04615 0.4271737,0.110127 0.4273076,0.109878 0.1313947,-0.244111 -0.1629181,-0.194893 -0.225019,-0.35435 -0.138002,-0.35435 0.1852572,0 1.17001247,0.808257 1.5620838,1.28211 0.14937017,0.180527 0.75166522,0.710573 1.3384335,1.177879 0.965069,0.768587 1.0851958,0.823053 1.2591325,0.570892 0.1539928,-0.223247 0.1490977,-0.370518 -0.024583,-0.739581 -0.2557385,-0.543432 -0.9258464,-1.01039 -2.22371288,-1.549571 -0.9571911,-0.397652 -1.92683682,-1.116662 -1.75358802,-1.300317 0.052272,-0.05541 0.2723044,-0.100749 0.4889598,-0.100749 0.30638149,0 0.35245389,-0.04396 0.20732583,-0.197801 -0.10262623,-0.108791 -0.18659323,-0.257142 -0.18659323,-0.329669 0,-0.31817 0.50144919,-0.07725 1.25112761,0.601101 1.10204509,0.997191 1.76672089,1.305111 2.75839239,1.277859 0.9767384,-0.02684 2.1112246,-0.517674 2.3668548,-1.024014 0.1267801,-0.251119 0.2329788,-0.310098 0.3448443,-0.191513 0.2328279,0.246812 -0.4444341,1.086988 -1.1602195,1.439307 -0.9058753,0.445884 -2.4665957,0.240004 -3.295862,-0.434768 l -0.63244694,-0.51462 0.70554614,0.717273 c 1.5509998,1.576778 1.8302791,1.751471 1.7189688,1.075234 -0.012361,-0.0751 0.2566122,-0.11518 0.5977189,-0.08907 0.4669741,0.03574 0.7105477,-0.04251 0.9859227,-0.316753 0.4965905,-0.494544 0.5828388,-0.458923 0.412578,0.170401 -0.4954064,1.831138 0.2794358,2.845469 1.9934073,2.609532 0.6417546,-0.08834 -0.4721417,1.23631 -1.5129142,1.799165 -0.321852,0.17406 -0.6226091,0.468176 -0.6683491,0.653592 -0.063955,0.259254 -0.2098924,0.33712 -0.6318286,0.33712 -0.3017657,0 -0.7237317,-0.07056 -0.9377023,-0.156796 -0.3371019,-0.135864 -0.395538,-0.108358 -0.4377321,0.206043 -0.079376,0.591457 -0.7453016,0.553953 -1.5375256,-0.08659 z m 3.2770159,-0.786827 c 0,-0.09066 -0.157438,-0.167255 -0.3498623,-0.170215 -0.1924242,-0.003 -0.7347108,-0.145821 -1.2050812,-0.31747 l -0.8552189,-0.312088 0.5078098,0.482304 c 0.4016205,0.381448 0.653618,0.482304 1.2050812,0.482304 0.3834993,0 0.6972714,-0.07418 0.6972714,-0.164835 z M 1.3825642,-34.70231 c 0,-0.135989 -0.067776,-0.247252 -0.1506142,-0.247252 -0.082838,0 -0.1103378,0.111263 -0.061111,0.247252 0.049227,0.135988 0.1170031,0.247251 0.1506142,0.247251 0.033611,0 0.061111,-0.111263 0.061111,-0.247251 z m 1.538698,-0.799303 c -0.2903916,-0.303628 -0.5520931,-0.486572 -0.5815589,-0.406543 -0.100664,0.273403 0.5520249,0.86388 1.048042,0.948146 0.033826,0.0057 -0.1760914,-0.237975 -0.4664831,-0.541603 z m -11.9080218,-1.747424 c -0.2724879,-0.176127 -0.5698709,-0.467675 -0.6608509,-0.647884 -0.2131804,-0.422257 -0.2216351,-2.053955 -0.00992,-1.915251 0.085522,0.05603 0.1554944,0.327121 0.1554944,0.602424 0,0.504054 0.4288861,1.458004 0.6555031,1.458004 0.067083,0 0.1219686,-0.400693 0.1219686,-0.89043 v -0.89043 l 0.7232171,0.27429 c 0.3977694,0.150859 0.8662573,0.477384 1.0410842,0.72561 l 0.317867,0.451322 -0.5941455,0.576905 c -0.6766964,0.65706 -1.0455742,0.710897 -1.750214,0.25544 z m 1.3160532,-0.09997 c 0.4261253,-0.316397 0.4507855,-0.732407 0.043416,-0.732407 -0.3222093,0 -0.827332,0.620419 -0.6928804,0.851034 0.1155011,0.19811 0.2579167,0.172097 0.6494648,-0.118627 z m 8.19915244,-0.565685 c -0.0544757,-0.09344 0.007939,-0.121072 0.14631754,-0.06478 0.26938109,0.109581 0.31866807,0.227728 0.095,0.227728 -0.0804746,0 -0.18906754,-0.07332 -0.24131755,-0.162946 z M -15.488573,-38.905583 c -0.05285,-0.09066 -0.225696,-0.164835 -0.38409,-0.164835 -0.50144,0 -1.093733,-0.926491 -1.088192,-1.702197 0.0066,-0.922032 0.594955,-1.67352 1.208069,-1.542993 0.988465,0.210437 1.282433,0.434241 1.599137,1.217461 0.326192,0.806684 0.297114,1.864104 -0.03739,1.359796 -0.122136,-0.184135 -0.140713,-0.153647 -0.08132,0.133458 0.120822,0.584016 -0.930874,1.18873 -1.216214,0.69931 z m 0.453766,-0.100053 c 0.250768,-0.102008 0.352946,-0.888953 0.115424,-0.888953 -0.07179,0 -0.211739,0.188929 -0.310989,0.419842 -0.264122,0.614504 -0.249294,0.650073 0.195565,0.469111 z m -0.271178,-1.076487 c -0.08597,-0.348515 0.05721,-0.398922 0.325446,-0.114571 0.291193,0.308684 0.408141,-0.259569 0.164748,-0.800513 -0.282729,-0.628367 -1.075894,-0.732611 -1.435316,-0.188642 -0.334328,0.505991 -0.312307,0.885417 0.0735,1.266443 0.401233,0.396258 0.982732,0.287702 0.871619,-0.162717 z m 28.542195,-0.306968 c 0,-0.317306 0.032,-0.447113 0.07111,-0.28846 0.03911,0.158653 0.03911,0.418267 0,0.57692 -0.03911,0.158652 -0.07111,0.02884 -0.07111,-0.28846 z M 116.20135,150.07686 c -0.008,-0.45329 -0.0251,-1.81263 -0.0389,-3.02076 l -0.0251,-2.19659 -0.45599,0.38341 c -0.28202,0.23713 -0.42774,0.48881 -0.38192,0.65964 0.0407,0.15193 -0.0413,0.34464 -0.18219,0.42826 -0.23626,0.14015 -0.23679,0.19196 -0.007,0.66338 0.1372,0.28125 0.24945,0.69116 0.24945,0.91091 0,0.21975 0.10407,0.71222 0.23126,1.09437 0.40704,1.22297 -0.17903,1.80402 -1.42019,1.40805 -0.59821,-0.19085 -0.85638,-0.20083 -1.25386,-0.0485 -0.39931,0.15307 -0.58297,0.1451 -0.90817,-0.0394 -0.47569,-0.26987 -1.01417,-0.79939 -1.23839,-1.21777 -0.1461,-0.27261 -0.26114,-0.24336 -1.55495,0.3953 -0.76844,0.37932 -1.78202,0.75674 -2.25239,0.83871 -0.47037,0.082 -1.27506,0.25406 -1.78819,0.38242 -0.85208,0.21314 -0.41396,0.23118 5.05357,0.20804 l 5.98653,-0.0253 z m -12.83958,0.08 c 1.50818,-0.20759 2.77335,-0.82763 3.61972,-1.77398 0.3748,-0.41909 0.55901,-0.6639 0.40935,-0.54404 -0.20072,0.16076 -0.3264,0.17019 -0.47899,0.0359 -0.15821,-0.13919 -0.30749,-0.0707 -0.63458,0.29124 -0.6619,0.73237 -2.33036,1.4719 -3.60384,1.59736 -0.9305,0.0917 -1.31454,0.0401 -2.53507,-0.34061 -1.9107,-0.59595 -3.131968,-1.20768 -4.448474,-2.22825 -0.598653,-0.46407 -1.282341,-0.88654 -1.519306,-0.93882 -0.236965,-0.0523 -0.468505,-0.15964 -0.514533,-0.23859 -0.114474,-0.19634 -1.278093,-0.18186 -1.51022,0.0188 -0.103293,0.0893 -0.408514,0.34952 -0.678268,0.57829 -0.361932,0.30693 -0.470368,0.51277 -0.413784,0.78544 0.16786,0.80892 0.199633,0.83265 0.525981,0.39284 0.807198,-1.08782 2.429181,-0.93698 4.526162,0.42094 2.916569,1.88865 4.524592,2.31935 7.255852,1.94343 z m -10.587403,-4.06279 c 0.106902,-0.0457 0.281833,-0.0457 0.388736,0 0.106902,0.0457 0.01944,0.0831 -0.194368,0.0831 -0.213805,0 -0.301271,-0.0374 -0.194368,-0.0831 z m 0.787025,3.56427 c 0.375939,-0.37128 0.399087,-0.46415 0.199123,-0.79886 -0.09289,-0.15548 -0.272964,-0.19202 -0.56434,-0.1145 -0.321328,0.0855 -0.383583,0.16085 -0.249932,0.30253 0.258577,0.27411 0.218414,0.45241 -0.101904,0.45241 -0.275861,0 -0.653076,-0.29166 -0.653076,-0.50496 0,-0.0601 0.437328,-0.31885 0.97184,-0.5749 0.885762,-0.42431 0.937408,-0.47595 0.583103,-0.583 -1.086287,-0.32821 -2.021426,0.0196 -2.021426,0.75189 0,0.21395 -0.07499,0.4155 -0.166652,0.44789 -0.097,0.0343 -0.02729,0.2467 0.16678,0.50823 0.421547,0.5681 1.319839,0.62351 1.836484,0.11327 z m 21.514168,0.0633 c 0.1564,-0.15004 0.28436,-0.36107 0.28436,-0.46896 0,-0.27914 -0.48855,-0.70497 -0.85522,-0.74541 -0.72792,-0.0803 -0.81097,-0.0154 -0.79396,0.62027 0.0146,0.5462 0.0698,0.62868 0.48297,0.72225 0.25657,0.0581 0.49596,0.11442 0.53199,0.12514 0.036,0.0107 0.19346,-0.10325 0.34986,-0.25329 z m -2.15521,-0.20985 c 0.46357,-0.18684 0.60262,-0.91858 0.35984,-1.89375 l -0.16756,-0.67304 -0.0814,0.55985 c -0.0757,0.52038 -0.18309,0.63601 -0.93666,1.00853 -0.30795,0.15223 -0.38338,0.61305 -0.1493,0.91205 0.21782,0.27823 0.44839,0.29864 0.97511,0.0864 z m -3.93784,-0.85092 c 1.06967,-0.57704 1.74143,-1.06311 2.15115,-1.55654 0.72433,-0.8723 1.60974,-2.90032 1.40981,-3.22914 -0.1156,-0.19013 -0.16274,-0.18683 -0.29106,0.0204 -0.0842,0.13599 -0.15418,0.41653 -0.15549,0.62342 -0.003,0.5049 -0.39345,1.46591 -0.85677,2.10985 -0.37965,0.52763 -2.53105,2.13943 -2.66548,1.99692 -0.0395,-0.0418 0.21215,-0.54836 0.55912,-1.12565 0.34697,-0.57729 0.77657,-1.56233 0.95468,-2.18899 0.23114,-0.81325 0.36362,-1.07275 0.46284,-0.90659 0.25749,0.43119 0.15112,-0.13903 -0.11901,-0.63796 -0.21585,-0.39869 -0.36484,-0.48538 -0.83416,-0.48538 h -0.57137 l 0.3658,0.67806 c 0.2012,0.37294 0.36665,0.82852 0.36768,1.01239 0.003,0.5552 -0.99634,2.58484 -1.7663,3.58692 -0.39782,0.51776 -0.6881,0.94137 -0.64507,0.94137 0.043,0 0.77816,-0.37757 1.63363,-0.83906 z m -12.903888,0.49898 0.699724,-0.014 -0.621977,-0.30522 c -1.06041,-0.52037 -2.227833,-0.38239 -2.003683,0.23683 0.08462,0.23375 0.21912,0.27306 0.666118,0.19467 0.308051,-0.054 0.874969,-0.10452 1.259818,-0.11225 z m 15.297818,-0.47268 c -0.2503,-0.44916 -0.68135,-0.69672 -0.68135,-0.3913 0,0.16586 0.82027,1.0488 0.89791,0.9665 0.0359,-0.0381 -0.0615,-0.29694 -0.21656,-0.5752 z M 84.051237,147.9393 c -0.04818,-0.13309 -0.01953,-0.28656 0.06365,-0.34106 0.289214,-0.18948 -0.02073,-0.41111 -0.329753,-0.23579 -0.417084,0.23663 -0.398546,0.81882 0.02607,0.81882 0.224162,0 0.299964,-0.0764 0.240033,-0.24197 z m 31.083813,-0.23817 c -0.15311,-0.26262 -0.7081,-0.21876 -0.7081,0.056 0,0.26329 0.47123,0.43363 0.67841,0.24523 0.0738,-0.0671 0.0871,-0.20264 0.0297,-0.3012 z m -2.72952,0.13956 c 0,-0.2628 1.0745,-1.79473 1.15817,-1.65121 0.15645,0.26835 1.01571,0.38648 1.25836,0.17301 0.3,-0.26394 0.28933,-0.75789 -0.0191,-0.88335 -0.41633,-0.16936 -1.23685,-0.11096 -1.4893,0.10599 -0.13186,0.11332 -0.492,0.69436 -0.80031,1.2912 -0.40688,0.78768 -0.4985,1.08516 -0.33419,1.08516 0.1245,0 0.22636,-0.0544 0.22636,-0.1208 z m -10.02939,-0.15392 c -0.0529,-0.0907 -0.1892,-0.16484 -0.30299,-0.16484 -0.1138,0 -0.47702,-0.26186 -0.80717,-0.58192 -0.81688,-0.7919 -1.14451,-0.98327 -1.14451,-0.66852 0,0.29049 0.80804,0.97347 1.56183,1.32011 0.63801,0.29339 0.82324,0.31883 0.69284,0.0952 z m 12.07744,-0.2728 c 0.41355,-0.39674 0.3509,-0.60453 -0.14325,-0.47516 -0.52606,0.13772 -0.729,0.33287 -0.59147,0.56876 0.14856,0.25481 0.40569,0.22205 0.73472,-0.0936 z m -7.33486,-0.73964 c 0,-0.44853 0.0247,-0.46885 0.34986,-0.28736 0.19243,0.10742 0.3919,0.26339 0.44327,0.34659 0.0514,0.0832 0.18232,-0.0763 0.29098,-0.35434 0.20826,-0.53297 0.39759,-0.64291 0.51595,-0.29959 0.0391,0.11333 0.0798,0.0206 0.0904,-0.20604 0.0107,-0.22665 0.0561,-0.82005 0.10093,-1.31867 l 0.0815,-0.90659 -0.31779,0.65474 c -0.17479,0.3601 -0.41477,0.71226 -0.53329,0.78257 -0.13035,0.0773 -0.18212,0.27452 -0.13105,0.4991 0.0692,0.30434 0.047,0.33413 -0.1233,0.16522 -0.2486,-0.24655 -0.83449,-0.26787 -1.22791,-0.0447 -0.20839,0.11823 -0.33774,0.0933 -0.48381,-0.0933 -0.10965,-0.14006 -0.41438,-0.37208 -0.67718,-0.51559 -0.26279,-0.14351 -0.56474,-0.39143 -0.67101,-0.55094 -0.19765,-0.2967 -0.69606,-0.27291 -1.08791,0.0519 -0.24264,0.20114 -0.10661,0.45202 0.24509,0.45202 0.44261,0 2.45925,1.09664 2.56773,1.39633 0.0555,0.15343 0.10099,0.41893 0.10099,0.58999 0,0.20873 0.0767,0.27981 0.23324,0.21613 0.13384,-0.0544 0.23324,-0.30056 0.23324,-0.57754 z m -24.798906,-0.12962 c -0.09205,-0.44429 -0.169747,-0.50629 -0.634491,-0.50629 h -0.529592 l 0.580294,0.56375 c 0.319161,0.31005 0.604682,0.53788 0.634491,0.50629 0.02981,-0.0316 0.007,-0.28529 -0.0507,-0.56375 z m 18.920366,-0.5887 c -0.4294,-0.9406 -0.65222,-1.13966 -0.65222,-0.58266 0,0.26427 0.83541,1.48925 1.01563,1.48925 0.0277,0 -0.13578,-0.40797 -0.36341,-0.90659 z m -5.895028,-1.20283 c -0.531691,-0.51701 -1.301388,-1.12285 -1.710438,-1.34632 -0.409049,-0.22346 -0.98863,-0.57128 -1.287957,-0.77292 -0.299326,-0.20165 -0.736654,-0.41628 -0.971839,-0.47696 -0.357874,-0.0923 -0.42761,-0.0569 -0.42761,0.21704 0,0.45304 0.381166,0.74522 0.808884,0.62005 0.342579,-0.10025 0.34515,-0.0942 0.0623,0.14594 -0.162263,0.13778 -0.354687,0.21142 -0.42761,0.16364 -0.154104,-0.10096 -0.18163,0.32016 -0.03134,0.47948 0.05568,0.059 0.181608,-0.009 0.279829,-0.15157 0.1618,-0.23457 0.265533,-0.23177 1.103835,0.0298 0.508889,0.1588 1.048535,0.29984 1.199213,0.31344 0.150678,0.0136 0.500541,0.24842 0.777472,0.52184 0.539088,0.53225 1.386483,1.20329 1.514224,1.1991 0.04276,-0.001 -0.357273,-0.42557 -0.888964,-0.94258 z m 19.857978,-0.36744 c -0.32796,-0.21979 -1.04717,-0.19716 -1.44725,0.0455 -0.30906,0.18749 -0.26263,0.2137 0.51558,0.29107 0.90173,0.0896 1.33442,-0.0667 0.93167,-0.33662 z m -21.056502,0.18922 c -0.154909,-0.2657 -1.141227,-0.67938 -1.619826,-0.67938 -0.706946,0 -0.776386,0.32731 -0.0726,0.34221 0.325755,0.007 0.837184,0.11251 1.136511,0.23471 0.684028,0.27924 0.655966,0.27407 0.555916,0.10246 z m 13.728232,-0.35921 c 0.66192,-0.42779 0.55565,-0.5671 -0.18304,-0.23992 -0.70864,0.31388 -1.56739,0.32107 -1.8069,0.0151 -0.15168,-0.19374 -0.12251,-0.21739 0.16862,-0.13669 0.29579,0.082 0.26707,0.0171 -0.17973,-0.40608 -0.48649,-0.46079 -0.51598,-0.54036 -0.34648,-0.93473 0.25159,-0.58535 0.57673,-0.54751 0.59751,0.0695 0.0198,0.58966 0.65738,1.40557 0.89852,1.14994 0.0867,-0.0919 0.4893,-0.16702 0.89475,-0.16702 0.40546,0 0.77952,-0.0726 0.83124,-0.1613 0.11734,-0.20126 -0.53347,-1.15737 -0.7878,-1.15737 -0.10292,0 -0.23104,0.18544 -0.28471,0.41208 -0.0539,0.22786 -0.21041,0.41209 -0.34999,0.41209 -0.21591,0 -0.23822,-0.14418 -0.15417,-0.99661 0.0541,-0.54813 0.18598,-1.16007 0.29318,-1.35988 0.19308,-0.35987 0.19539,-0.35896 0.24588,0.0974 l 0.051,0.4607 0.31772,-0.42817 c 0.17474,-0.2355 0.28237,-0.46563 0.23919,-0.51141 -0.1716,-0.18191 0.78302,-1.05353 1.266,-1.15593 0.55565,-0.1178 0.78934,-0.46744 0.51021,-0.76334 -0.12845,-0.13617 -0.27446,-0.0846 -0.55697,0.19676 -0.26112,0.26005 -0.47193,0.34273 -0.66291,0.26 -0.15401,-0.0667 -0.63843,-0.15634 -1.07648,-0.19915 -0.64147,-0.0627 -0.94894,0.004 -1.58016,0.34315 -0.43105,0.23155 -0.93681,0.64891 -1.12392,0.92746 -0.3086,0.45941 -0.33003,0.6283 -0.23071,1.81773 0.0953,1.14174 0.0772,1.31127 -0.13993,1.31127 -0.59518,0 0.0202,0.95217 0.83912,1.29832 0.67073,0.28353 1.74476,0.21196 2.311,-0.15398 z m -7.20916,0.009 c 0.0529,-0.0907 -0.013,-0.16484 -0.14631,-0.16484 -0.13333,0 -0.24242,0.0742 -0.24242,0.16484 0,0.0907 0.0658,0.16483 0.14632,0.16483 0.0805,0 0.18956,-0.0742 0.24241,-0.16483 z m 15.21313,-0.23673 c 0.11563,-0.31945 -0.44211,-1.04288 -0.87187,-1.13088 l -0.34676,-0.071 0.35693,-0.0224 c 0.19631,-0.0124 0.52868,0.15962 0.73859,0.38214 l 0.38167,0.4046 0.0205,-0.69306 c 0.04,-1.35166 0.0569,-2.88979 0.0314,-2.86304 -0.0142,0.0149 -0.26087,0.50847 -0.54812,1.09676 -0.41324,0.84631 -0.70002,1.19474 -1.37361,1.66895 -1.53907,1.08348 -1.80503,1.74384 -0.38486,0.95555 0.5077,-0.28181 0.70055,-0.31293 1.04959,-0.16937 0.23519,0.0967 0.42761,0.28896 0.42761,0.4272 0,0.31852 0.40477,0.32991 0.51891,0.0146 z m -3.93978,-0.64291 c 0,-0.29179 -0.10959,-0.69637 -0.24352,-0.89907 -0.52853,-0.7999 -2.46007,-1.46003 -2.84255,-0.97148 -0.25972,0.33173 -0.068,0.43645 0.93555,0.51099 0.70357,0.0523 0.88348,0.13879 1.24622,0.5994 0.23318,0.29608 0.46775,0.74971 0.52128,1.00808 0.12563,0.60635 0.38302,0.43974 0.38302,-0.24792 z m -8.08571,-0.60319 c 0,-0.17856 -0.10669,-0.28474 -0.27212,-0.27083 -0.20384,0.0172 -0.27601,-0.10878 -0.28766,-0.50195 l -0.0156,-0.52486 0.55648,0.40085 c 0.55482,0.39966 0.55683,0.39983 0.67614,0.058 0.15131,-0.4336 -0.0215,-1.26534 -0.19952,-0.96007 -0.099,0.16975 -0.17417,0.16616 -0.38386,-0.0183 -0.35703,-0.3141 -0.69589,-0.34549 -0.69589,-0.0645 0,0.12797 -0.0653,0.23267 -0.14501,0.23267 -0.0798,0 -0.18944,0.14835 -0.24372,0.32967 -0.1488,0.49697 -0.32098,0.40232 -0.67472,-0.37088 -0.21081,-0.46079 -0.32265,-0.58772 -0.32679,-0.37088 -0.008,0.43839 0.83137,1.97314 1.24945,2.28356 0.39537,0.29357 0.76277,0.18642 0.76277,-0.22245 z m 8.79553,-1.58618 c 0.12508,-0.55472 0.19667,-1.18521 0.15909,-1.40109 -0.0376,-0.21588 -0.0735,-0.641 -0.0799,-0.94471 -0.0138,-0.65769 -0.87136,-1.67306 -1.4131,-1.67306 -0.29262,0 -0.33133,0.0679 -0.25836,0.45329 0.14991,0.79174 0.37689,1.73662 0.71224,2.96493 0.17913,0.65613 0.32569,1.36698 0.32569,1.57966 0,0.48414 0.2169,0.74187 0.28008,0.33281 0.0258,-0.16679 0.14918,-0.75711 0.27425,-1.31183 z m -2.68434,-0.72218 c 0.17298,0 0.63193,0.1972 1.01989,0.43822 l 0.70539,0.43821 -0.33006,-0.56184 c -0.39053,-0.66478 -1.13179,-1.17226 -1.24201,-0.8503 -0.0388,0.11332 -0.17246,0.20604 -0.29702,0.20604 -0.30581,0 -1.45804,0.63225 -1.45804,0.80005 0,0.32073 0.21744,0.29929 0.73407,-0.0724 0.3043,-0.21891 0.6948,-0.39802 0.86778,-0.39802 z m 1.36566,-0.53571 c -0.0741,-0.20398 -0.33133,-0.81593 -0.57168,-1.35988 -0.24035,-0.54396 -0.47539,-1.16914 -0.52232,-1.38931 -0.16764,-0.78644 -1.60744,-0.82762 -2.27413,-0.065 l -0.35321,0.40401 0.4745,0.48069 c 0.56019,0.56751 0.77198,0.50234 0.64005,-0.19693 -0.0945,-0.50114 -0.0899,-0.50534 0.43271,-0.39343 0.54988,0.11775 1.22799,0.76073 1.22799,1.16438 0,0.20156 0.91575,1.72639 1.0368,1.72639 0.0242,0 -0.0166,-0.1669 -0.0907,-0.37088 z m -2.07666,-0.0584 c -0.0517,-0.0548 -0.18579,-0.0606 -0.29803,-0.013 -0.12405,0.0526 -0.0872,0.0917 0.0939,0.0996 0.16392,0.007 0.25576,-0.0318 0.20409,-0.0866 z m 4.62919,-30.06508 c 0.11403,0 0.23321,0.0823 0.26485,0.18291 0.0344,0.10943 0.14893,0.0636 0.28507,-0.11406 0.12516,-0.16333 0.14513,-0.24456 0.0444,-0.18051 -0.10796,0.0686 -0.2218,-0.0126 -0.27726,-0.19781 -0.16252,-0.54282 -1.32775,-0.72067 -1.32775,-0.20266 0,0.384 0.36087,0.55453 0.62051,0.29321 0.15051,-0.15149 0.17168,-0.10426 0.0981,0.21892 -0.0516,0.22665 -0.0536,0.31937 -0.005,0.20605 0.0491,-0.11333 0.18257,-0.20605 0.29659,-0.20605 z m -0.74882,-1.95741 c 0.18681,-0.10199 0.67661,-0.18779 1.08846,-0.19067 0.69223,-0.005 0.72601,-0.0235 0.44699,-0.24726 -0.17673,-0.14169 -0.64149,-0.242 -1.12128,-0.242 -0.92824,0 -1.45353,0.40881 -1.45353,1.13123 v 0.40974 l 0.34986,-0.3378 c 0.19243,-0.1858 0.5027,-0.42125 0.6895,-0.52324 z M -9.8281181,-29.373462 c 0.2741553,-0.181497 0.2600151,-0.224756 -0.2353509,-0.720009 -0.467524,-0.467416 -0.527032,-0.623522 -0.527032,-1.382555 0,-0.528455 -0.05946,-0.816689 -0.155494,-0.753771 -0.08552,0.05603 -0.155494,0.246937 -0.155494,0.424236 0,0.391812 -0.8481,0.975377 -1.418773,0.976239 -0.57334,8.66e-4 -1.605103,-0.409817 -2.198949,-0.875269 -0.752148,-0.589528 -1.032597,-0.703397 -0.502878,-0.204181 0.827183,0.779552 2.0804,1.316653 3.049096,1.306774 l 0.872175,-0.0089 -0.07605,0.715265 -0.07605,0.715264 h 0.566563 c 0.311609,0 0.6978181,-0.08689 0.8582419,-0.193098 z m -3.5612809,-4.59528 c 0,-0.276479 0.105784,-0.719539 0.235075,-0.984578 0.201146,-0.412337 0.202574,-0.468669 0.0099,-0.390291 -0.368251,0.1498 -0.887681,1.405213 -0.687305,1.661153 0.277688,0.354693 0.442332,0.248133 0.442332,-0.286284 z m 2.344312,-2.093451 c 0.0065,-0.06799 0.0353,-0.253138 0.0639,-0.411431 0.0286,-0.158293 -0.01174,-0.329565 -0.08964,-0.380605 -0.0779,-0.05104 -0.141645,-0.02119 -0.141645,0.06633 0,0.08752 -0.139945,0.120336 -0.310989,0.07292 -0.23247,-0.06444 -0.310988,-0.0051 -0.310988,0.235211 0,0.176781 0.04665,0.370871 0.103663,0.43131 0.141488,0.149987 0.67097,0.13938 0.685705,-0.01374 z m 22.379289,-3.98228 c 0,-0.337059 -1.3575961,-2.259971 -1.8327422,-2.595913 -0.6907273,-0.488363 -1.7996927,-0.717448 -3.4228452,-0.707076 -1.2752792,0.0082 -1.3328437,0.02349 -1.0030597,0.267357 0.1924243,0.142291 0.3498623,0.360926 0.3498623,0.485857 0,0.33609 0.2756284,0.275513 0.466483,-0.102523 0.09154,-0.181317 0.2514398,-0.328532 0.3553332,-0.327144 0.1351837,0.0018 0.1303712,0.04186 -0.016924,0.140858 -0.1166606,0.07841 0.2874961,0.107188 0.9329661,0.06644 1.0584672,-0.06683 1.189876,-0.037 1.8631243,0.422844 0.4241292,0.289691 0.9904326,0.910121 1.3663696,1.496964 0.58673,0.915895 0.941433,1.237031 0.941433,0.852339 z m 0.616507,-0.168948 c 0.187683,-0.371753 0.212564,-0.837327 0.04434,-0.829765 -0.337563,0.01517 -0.681958,0.488759 -0.586728,0.806824 0.128135,0.427966 0.333518,0.436654 0.542384,0.02294 z m -8.1506756,-0.17567 c 0.2038343,0 0.6179462,-0.230211 0.9202486,-0.511579 0.4222265,-0.392987 0.5496409,-0.638628 0.5496409,-1.059648 0,-1.055952 -0.9601077,-1.399053 -2.012272,-0.719101 l -0.5350756,0.345789 0.3795813,0.309267 c 0.4626198,0.376924 0.5960421,0.389917 0.7120863,0.06935 0.1177409,-0.325257 0.4643982,-0.316433 0.5843294,0.01487 0.1119341,0.309217 -0.00542,0.5601 -0.2651603,0.566877 -0.1968158,0.0051 -1.1959044,0.908984 -1.1959044,1.081903 0,0.05631 0.1106816,0.05735 0.2459591,0.0023 0.1352774,-0.05503 0.4127325,-0.100052 0.6165667,-0.100052 z M 2.477663,-41.119152 c -0.1467334,-0.423639 -0.7489219,-0.547949 -0.881411,-0.181949 -0.05304,0.146522 0.023997,0.405407 0.1723488,0.579179 0.3603965,0.422154 0.8900863,0.125412 0.7090622,-0.39723 z m -0.3522256,-1.17488 c 0.445648,-0.330893 0.4434273,-0.562248 -0.00428,-0.445386 -0.533447,0.139243 -0.2167542,-0.123495 0.4549128,-0.37741 l 0.5946741,-0.224809 -1.1662076,-0.03441 c -0.6414142,-0.01893 -1.69100106,-0.05252 -2.33241525,-0.07465 -1.57769785,-0.05445 -1.98585895,0.07078 -1.18712245,0.36421 0.3305844,0.121446 0.65697722,0.184179 0.72531736,0.139405 0.0683401,-0.04477 0.15376871,0.01178 0.18984127,0.125664 0.0449865,0.142031 0.41437726,0.203136 1.17607007,0.194546 0.8301679,-0.0094 1.0724361,0.03608 0.9597566,0.180001 -0.1422824,0.181737 -0.059485,0.409442 0.1488809,0.409442 0.052239,0 0.2504944,-0.115469 0.4405673,-0.256598 z"
       id="path1" /><path
       style="fill:#000000"
       d="m 38.803595,145.76476 c -0.01647,-0.0429 -0.02034,-0.67978 -0.0086,-1.41522 0.02443,-1.52954 0.01625,-1.49879 0.460541,-1.73141 0.452686,-0.23701 0.443205,-0.25959 0.452505,1.0776 0.0085,1.22568 0.0069,1.2982 -0.03254,1.46804 -0.02543,0.10945 -0.685469,0.67904 -0.786875,0.67904 -0.03029,0 -0.06856,-0.0351 -0.08503,-0.078 z m 3.693814,-0.0371 c -0.02443,-0.0643 -0.02488,-0.60865 -0.001,-1.23143 0.0535,-1.3963 0.05743,-2.67298 0.0085,-2.74632 -0.104316,-0.15623 -0.279138,-0.17265 -1.849374,-0.17375 -2.184008,-0.002 -2.13962,0.0209 -1.919107,-0.96909 0.05652,-0.25373 0.13969,-0.53275 0.184829,-0.62004 l 0.08207,-0.1587 0.174304,0.20163 0.174304,0.20163 h 1.786345 c 1.778266,0 1.78708,5.2e-4 1.9487,0.1158 0.219687,0.1567 0.273349,0.42504 0.179942,0.89981 -0.106812,0.54289 -0.02334,2.39841 0.147004,3.26784 0.09349,0.47716 -0.0044,0.67364 -0.579933,1.16403 -0.228026,0.1943 -0.278364,0.20157 -0.336526,0.0486 z m 5.187439,0.0731 c -0.04978,-0.0316 -0.06098,-0.44327 -0.05078,-1.86541 0.01797,-2.50458 0.15192,-2.32095 -1.720084,-2.35805 -1.721482,-0.0341 -1.719602,-0.0327 -1.463087,-1.06902 0.169139,-0.68329 0.226053,-0.74594 0.445826,-0.49078 l 0.160628,0.18649 1.371075,0.0138 c 1.526207,0.0154 1.548801,0.0199 1.823487,0.36121 l 0.156955,0.19504 0.03254,1.45532 c 0.0179,0.80043 0.04988,1.8006 0.07108,2.22261 l 0.03854,0.76729 -0.22342,0.24313 c -0.122881,0.13371 -0.296953,0.27402 -0.386826,0.31179 -0.190419,0.08 -0.174353,0.0784 -0.255931,0.0266 z m 2.840465,-0.0415 c -0.02749,-0.0491 -0.03624,-0.87094 -0.02123,-1.99313 0.03053,-2.28229 0.07317,-2.12421 -0.591061,-2.19117 -0.644092,-0.0649 -0.809627,-0.2243 -0.745135,-0.71734 0.05109,-0.39056 0.243041,-0.96187 0.344729,-1.02601 0.07155,-0.0451 0.126405,-0.0173 0.30426,0.15446 0.21215,0.20486 0.227057,0.21032 0.670622,0.24555 0.249507,0.0198 0.504433,0.0592 0.566502,0.0874 0.19776,0.0901 0.289414,0.33295 0.254926,0.67545 -0.103277,1.02563 -0.07349,2.55936 0.06932,3.56974 0.06348,0.44908 0.0042,0.60152 -0.3754,0.96607 -0.346934,0.33314 -0.403927,0.36047 -0.477535,0.22893 z m 1.730182,0.05 c -0.08457,-0.0342 -0.07982,-0.30279 0.01496,-0.84463 0.124886,-0.71395 0.111226,-0.696 0.529673,-0.696 h 0.356721 v -0.15288 c 0,-0.0841 -0.04746,-0.36401 -0.105467,-0.62206 -0.05801,-0.25805 -0.123313,-0.77561 -0.145125,-1.15013 -0.03337,-0.573 -0.05442,-0.69173 -0.132752,-0.74901 -0.0512,-0.0374 -0.129343,-0.0681 -0.173649,-0.0681 -0.117166,0 -0.30633,-0.1455 -0.353271,-0.27172 -0.02544,-0.0684 0.0089,-0.35554 0.09207,-0.76928 0.120286,-0.59859 0.143309,-0.66166 0.246912,-0.67638 0.06284,-0.009 0.114621,0.003 0.115067,0.0254 4.46e-4,0.0229 0.07128,0.1216 0.157416,0.21935 l 0.156605,0.17774 1.94051,0.003 c 1.84869,0.003 1.949967,0.008 2.140404,0.10605 0.117152,0.0605 0.247191,0.18547 0.314156,0.30188 0.109165,0.18977 0.112833,0.2326 0.08225,0.96034 -0.01761,0.41894 -0.0037,1.36175 0.03093,2.09514 0.07179,1.52071 0.09975,1.38458 -0.384706,1.87292 -0.152549,0.15377 -0.305254,0.27016 -0.339344,0.25864 -0.04735,-0.016 -0.06198,-0.48236 -0.06198,-1.97597 0,-2.12114 0.0091,-2.0508 -0.285768,-2.2033 -0.10972,-0.0567 -0.38533,-0.0728 -1.247823,-0.0725 -1.172892,3e-4 -1.450928,0.039 -1.545053,0.21484 -0.07923,0.14803 -0.02234,0.90663 0.109531,1.46064 0.233519,0.98105 0.260261,1.14482 0.227809,1.39512 -0.04381,0.33789 -0.316017,0.98031 -0.451023,1.06444 -0.108817,0.0678 -1.164663,0.14699 -1.289058,0.0967 z m -9.751571,-6.47904 c -0.06461,-0.0785 0.01393,-3.22462 0.09114,-3.65066 0.05902,-0.32568 0.01178,-0.51407 -0.150689,-0.60102 -0.07126,-0.0381 -0.629893,-0.0512 -1.767055,-0.0412 -1.508513,0.0132 -1.678031,0.006 -1.826384,-0.0748 -0.271294,-0.1483 -0.287038,-0.22786 -0.16609,-0.83925 0.139723,-0.70631 0.144798,-0.72173 0.237474,-0.72173 0.04331,0 0.158616,0.0701 0.256241,0.15585 l 0.177502,0.15585 1.784254,-0.0124 c 1.9872,-0.0138 2.045082,-0.005 2.242949,0.32355 0.14787,0.24586 0.130905,0.72809 -0.04206,1.19555 -0.09695,0.26202 -0.137342,0.46796 -0.137342,0.70024 0,0.39593 0.08183,1.16535 0.183086,1.72151 0.148037,0.8131 0.147066,0.89268 -0.01347,1.10307 -0.175352,0.22981 -0.660708,0.64886 -0.751525,0.64886 -0.03619,0 -0.08931,-0.0286 -0.118032,-0.0635 z m 8.115522,-0.0107 c -0.0759,-0.0914 -0.07488,-0.72699 0.0042,-2.5781 0.07306,-1.71126 0.104224,-1.62827 -0.634893,-1.69087 -0.34469,-0.0292 -0.418057,-0.0527 -0.525664,-0.16858 -0.116058,-0.12496 -0.122629,-0.15947 -0.09125,-0.47925 0.04275,-0.4357 0.162902,-0.90328 0.256302,-0.9974 0.07855,-0.0791 0.110317,-0.0682 0.507315,0.17493 0.158776,0.0972 0.27351,0.12458 0.525521,0.12523 0.742286,0.002 0.874924,0.25928 0.687407,1.3338 -0.08596,0.49256 -0.0843,0.60016 0.03941,2.55772 0.05722,0.90542 0.05636,0.92371 -0.05433,1.15235 -0.125067,0.25835 -0.473943,0.64439 -0.582363,0.64439 -0.03851,0 -0.09773,-0.0334 -0.131602,-0.0742 z m 6.540453,-0.0148 c -0.07456,-0.0498 -0.190113,-0.14723 -0.256781,-0.21657 -0.06667,-0.0693 -0.357779,-0.34317 -0.646914,-0.60849 -0.289135,-0.26533 -0.586064,-0.53955 -0.659842,-0.60937 -0.345607,-0.32708 -1.112012,-1.0195 -1.271559,-1.14881 -0.09775,-0.0792 -0.212009,-0.17897 -0.253903,-0.22165 -0.172022,-0.17525 -0.46398,-0.40686 -0.512877,-0.40686 -0.09455,0 -0.401173,0.74044 -0.401173,0.96876 0,0.22399 0.09367,0.34172 0.679255,0.85371 0.194276,0.16986 0.196461,0.17581 0.167833,0.45703 -0.03612,0.35479 -0.105937,0.59251 -0.236546,0.80542 l -0.101243,0.16504 h -0.650738 c -0.840699,0 -0.914342,-0.0613 -0.623844,-0.51938 0.147061,-0.2319 0.147942,-0.23769 0.07677,-0.50506 -0.08858,-0.33278 -0.09335,-0.80888 -0.01169,-1.16795 0.03383,-0.14876 0.191608,-0.52796 0.350621,-0.84267 l 0.289116,-0.57219 -0.112917,-0.0626 c -0.301047,-0.1668 -0.997535,-0.73539 -1.02522,-0.83697 -0.03204,-0.11756 0.149587,-1.21798 0.234685,-1.42185 0.02623,-0.0628 0.07746,-0.11426 0.113844,-0.11426 0.03638,0 0.202546,0.13942 0.369247,0.30983 0.251313,0.2569 1.40109,1.24445 1.920797,1.64979 0.16677,0.13007 0.787002,0.68006 1.097216,0.97296 0.125719,0.1187 0.243735,0.21581 0.262258,0.21581 0.05,0 0.324072,-0.44254 0.47111,-0.7607 0.162096,-0.35074 0.11785,-0.43526 -0.314208,-0.60024 -0.359656,-0.13734 -0.570027,-0.31393 -0.568747,-0.47743 0.0018,-0.2238 0.247608,-1.17406 0.323358,-1.24981 0.08402,-0.084 0.08395,-0.084 0.453527,0.20967 0.168058,0.13357 0.2226,0.14553 0.832137,0.18252 0.358761,0.0218 0.706244,0.0685 0.772184,0.10374 0.117781,0.063 0.119268,0.0732 0.08444,0.57892 -0.04638,0.67334 -0.09205,0.76757 -0.375472,0.77467 -0.168457,0.004 -0.237309,0.033 -0.303421,0.12695 -0.350518,0.49796 -0.542203,0.78012 -0.749062,1.10262 l -0.238455,0.37177 0.718396,0.69463 c 0.554969,0.5366 0.717866,0.7235 0.716066,0.82157 -0.0013,0.0698 -0.06683,0.33262 -0.145662,0.58398 -0.157417,0.50193 -0.225339,0.55848 -0.472587,0.39343 z m -18.365996,-1.40499 0.01744,-1.4432 0.126952,-0.13609 c 0.175068,-0.18767 0.706324,-0.45433 0.733944,-0.3684 0.04293,0.13356 0.06063,2.55943 0.01976,2.70911 -0.05121,0.18758 -0.633301,0.68178 -0.803025,0.68178 h -0.11251 z m 8.965919,1.40511 c -0.01116,-0.0209 -0.0039,-0.19804 0.0162,-0.39355 0.02007,-0.1955 0.01375,-0.9953 -0.01404,-1.77732 -0.04619,-1.29954 -0.05985,-1.43916 -0.158849,-1.62301 -0.05957,-0.11064 -0.185962,-0.25346 -0.280863,-0.31738 -0.169095,-0.1139 -0.199662,-0.11622 -1.528124,-0.11622 -1.326851,0 -1.360322,-0.003 -1.579383,-0.11969 l -0.223805,-0.11968 0.01433,-0.29926 c 0.02239,-0.46767 0.176113,-1.1445 0.27382,-1.20557 0.06829,-0.0427 0.130538,-0.0112 0.316243,0.15999 l 0.231222,0.21313 h 1.475402 c 1.639612,0 1.690719,0.008 1.968044,0.32428 0.132152,0.15051 0.165411,0.23385 0.170222,0.4265 0.0033,0.1317 0.01267,0.52509 0.02084,0.8742 0.02783,1.18855 0.07651,1.85267 0.183181,2.49926 0.0586,0.35517 0.0924,0.70208 0.07513,0.77091 -0.01728,0.0688 -0.163372,0.26382 -0.32466,0.43332 -0.238214,0.25034 -0.323407,0.30818 -0.453937,0.30818 -0.08838,0 -0.169815,-0.0171 -0.18097,-0.0381 z m -1.598759,-0.17773 c -0.02821,-0.0349 -0.06292,-0.15488 -0.07714,-0.2666 -0.01422,-0.11172 -0.08724,-0.46129 -0.162261,-0.77682 -0.108613,-0.45682 -0.123829,-0.58886 -0.07468,-0.64808 0.04359,-0.0525 0.08027,-0.059 0.124829,-0.022 0.05913,0.0491 0.09063,0.14532 0.230778,0.70493 0.05221,0.20846 0.0613,0.21735 0.140824,0.13769 0.06377,-0.0639 0.08501,-0.17667 0.08501,-0.45136 0,-0.35729 0.0032,-0.36658 0.133009,-0.38163 0.100319,-0.0116 0.139989,0.0113 0.161407,0.0932 0.02812,0.10754 -0.12942,0.7973 -0.221327,0.96902 -0.02623,0.049 -0.0477,0.12673 -0.0477,0.17267 0,0.0677 0.03132,0.0768 0.165037,0.048 0.273438,-0.0589 0.426195,-0.16182 0.513653,-0.34613 0.125457,-0.26438 0.109695,-0.48204 -0.039,-0.53858 -0.159346,-0.0606 -0.192821,-0.12146 -0.153323,-0.27883 0.04145,-0.16516 0.266853,-0.17746 0.407118,-0.0222 0.18921,0.20941 0.07929,0.95568 -0.188642,1.28073 -0.229257,0.27813 -0.867716,0.4868 -0.997596,0.32605 z m -1.357896,-0.0893 c -0.06445,-0.10429 0.04473,-0.28627 0.335932,-0.5599 0.211185,-0.19844 0.299106,-0.3186 0.299106,-0.40878 0,-0.19984 -0.09174,-0.2496 -0.460177,-0.2496 h -0.338303 l -0.03518,-0.38823 c -0.03646,-0.40234 -0.0012,-0.51397 0.144709,-0.45799 0.04789,0.0184 0.07959,0.0915 0.07959,0.18351 0,0.16564 0.0219,0.17644 0.455243,0.22456 0.286958,0.0319 0.357379,0.12778 0.356749,0.48594 -6.2e-4,0.35281 -0.159875,0.70962 -0.448962,1.00591 -0.208345,0.21353 -0.327317,0.2639 -0.388702,0.16458 z m 0.789038,-5.93777 c -0.105419,-0.19698 0.189605,-1.05751 0.489361,-1.42738 0.358803,-0.44272 1.001591,-0.90153 1.463033,-1.04427 0.36152,-0.11184 1.076381,-0.14758 1.459219,-0.073 0.726912,0.1417 1.430681,0.60043 1.873505,1.2212 0.172975,0.24249 0.398604,0.78342 0.433761,1.03991 0.02833,0.20669 -0.05843,0.38195 -0.189083,0.38195 -0.08446,0 -0.250276,-0.20061 -0.250276,-0.30278 0,-0.29821 -0.386694,-1.00214 -0.717395,-1.30593 -0.201321,-0.18494 -0.695507,-0.46092 -1.000341,-0.55866 -0.441908,-0.14168 -1.1077,-0.12077 -1.543055,0.0485 -0.392952,0.15275 -0.80572,0.44189 -1.08056,0.75693 -0.215644,0.24719 -0.533583,0.88564 -0.533583,1.07149 0,0.24091 -0.301772,0.38414 -0.404586,0.19203 z m -0.458683,-1.55668 c -0.09775,-0.0697 -0.388359,-0.25582 -0.645792,-0.41359 -0.257433,-0.15776 -0.480151,-0.31835 -0.494929,-0.35686 -0.04733,-0.12333 0.06889,-0.26586 0.215762,-0.26462 0.115171,9.8e-4 1.119214,0.59596 1.369289,0.81142 0.08606,0.0742 0.07982,0.17943 -0.01632,0.27557 -0.109924,0.10993 -0.219725,0.0966 -0.428007,-0.0519 z m 6.195228,0.0302 c -0.06697,-0.12513 0.003,-0.2768 0.166201,-0.36007 0.0622,-0.0318 0.227348,-0.13203 0.366995,-0.22285 0.639522,-0.41593 0.76121,-0.48347 0.871008,-0.48347 0.08291,0 0.126664,0.0374 0.149306,0.12761 0.04152,0.16541 -0.02325,0.23861 -0.432195,0.48844 -0.183819,0.1123 -0.459898,0.28232 -0.613509,0.37783 -0.320892,0.19952 -0.43139,0.21529 -0.507806,0.0725 z m -4.680407,-1.18065 c -0.04333,-0.0349 -0.165501,-0.21201 -0.271484,-0.39355 -0.105983,-0.18154 -0.231834,-0.3879 -0.279668,-0.45858 -0.220149,-0.32529 -0.307549,-0.55618 -0.250726,-0.66235 0.03889,-0.0727 0.0961,-0.0992 0.190409,-0.0882 0.113045,0.0132 0.198591,0.12163 0.529781,0.6715 0.217232,0.36067 0.394967,0.69609 0.394967,0.74539 0,0.0895 -0.126257,0.24922 -0.197044,0.24922 -0.0206,0 -0.0729,-0.0286 -0.116235,-0.0635 z m 3.334643,-0.0382 c -0.108453,-0.11984 -0.111641,-0.11242 0.432437,-1.00565 0.301591,-0.49512 0.344184,-0.54307 0.482416,-0.54307 0.133997,0 0.15347,0.0192 0.167553,0.16534 0.01,0.10348 -0.02099,0.21748 -0.08276,0.30469 -0.05428,0.0766 -0.215503,0.33746 -0.35827,0.57961 -0.372887,0.63245 -0.459609,0.69993 -0.641378,0.49908 z m -1.667823,-0.39346 c -0.04142,-0.067 -0.09492,-1.52337 -0.06,-1.63339 0.05397,-0.17005 0.219229,-0.23278 0.335656,-0.12741 0.08803,0.0797 0.09734,0.16407 0.09734,0.88255 0,0.55021 -0.01873,0.8132 -0.06094,0.8554 -0.0674,0.0674 -0.27514,0.0826 -0.312061,0.0228 z"
       id="path2" /><text
       xml:space="preserve"
       style="font-style:normal;font-variant:normal;font-weight:normal;font-stretch:normal;font-size:3.52778px;line-height:1.4;font-family:Georgia;-inkscape-font-specification:Georgia;text-align:center;letter-spacing:1.03717px;writing-mode:lr-tb;direction:ltr;text-anchor:middle;fill:#000000;stroke:#000000;stroke-width:0.331999;stroke-linecap:square;stroke-opacity:0.0896159;paint-order:stroke markers fill"
       x="49.14315"
       y="10.170581"
       id="text4"><tspan
         style="font-size:3.52778px;line-height:1.4;stroke-width:0.332;fill:#000000;stroke:#000000"
         x="49.143147"
         y="10.170581"
         id="tspan5"
         dx="-1.0723952">De la Gense aux matres contemporains,</tspan><tspan
         style="font-size:3.52778px;line-height:1.4;stroke-width:0.332;fill:#000000;stroke:#000000"
         x="49.14315"
         y="15.109472"
         id="tspan7">ce livre parcourt des millenaires de sagesse, </tspan><tspan
         style="font-size:3.52778px;line-height:1.4;stroke-width:0.332;fill:#000000;stroke:#000000"
         x="49.14315"
         y="20.048365"
         id="tspan8">de foi et de transmission</tspan><tspan
         style="font-size:3.52778px;line-height:1.4;stroke-width:0.332;fill:#000000;stroke:#000000"
         x="49.14315"
         y="24.987257"
         id="tspan9" /><tspan
         style="font-size:3.52778px;line-height:1.4;stroke-width:0.332;fill:#000000;stroke:#000000"
         x="49.14315"
         y="29.926149"
         id="tspan10">Torah crite: Les patriarches, les prophtes</tspan><tspan
         style="font-size:3.52778px;line-height:1.4;stroke-width:0.332;fill:#000000;stroke:#000000"
         x="49.14315"
         y="34.86504"
         id="tspan16"> et le souffle des origines</tspan><tspan
         style="font-size:3.52778px;line-height:1.4;stroke-width:0.332;fill:#000000;stroke:#000000"
         x="49.14315"
         y="39.803932"
         id="tspan17" /><tspan
         style="font-size:3.52778px;line-height:1.4;stroke-width:0.332;fill:#000000;stroke:#000000"
         x="49.14315"
         y="44.742825"
         id="tspan11">Torah Orale: Les sages du talmud,</tspan><tspan
         style="font-size:3.52778px;line-height:1.4;stroke-width:0.332;fill:#000000;stroke:#000000"
         x="49.14315"
         y="49.681717"
         id="tspan18">la loi vivante; le dbat qui traverse les sicles.</tspan><tspan
         style="font-size:3.52778px;line-height:1.4;stroke-width:0.332;fill:#000000;stroke:#000000"
         x="49.14315"
         y="54.620609"
         id="tspan19" /><tspan
         style="font-size:3.52778px;line-height:1.4;stroke-width:0.332;fill:#000000;stroke:#000000"
         x="49.14315"
         y="59.559502"
         id="tspan12">Les commentateurs: Rachi, Rambam,</tspan><tspan
         style="font-size:3.52778px;line-height:1.4;stroke-width:0.332;fill:#000000;stroke:#000000"
         x="49.14315"
         y="64.49839"
         id="tspan20">Ramban et les voix qui clairent le texte sacr</tspan><tspan
         style="font-size:3.52778px;line-height:1.4;stroke-width:0.332;fill:#000000;stroke:#000000"
         x="49.14315"
         y="69.437286"
         id="tspan21" /><tspan
         style="font-size:3.52778px;line-height:1.4;stroke-width:0.332;fill:#000000;stroke:#000000"
         x="49.14315"
         y="74.376175"
         id="tspan13">Mystique &amp; renouveau: La Kabbale,</tspan><tspan
         style="font-size:3.52778px;line-height:1.4;stroke-width:0.332;fill:#000000;stroke:#000000"
         x="49.14315"
         y="79.315071"
         id="tspan22">le Hassidisme et l'lan spirituel</tspan><tspan
         style="font-size:3.52778px;line-height:1.4;stroke-width:0.332;fill:#000000;stroke:#000000"
         x="49.14315"
         y="84.25396"
         id="tspan23">jusqu' nos jours</tspan><tspan
         style="font-size:3.52778px;line-height:1.4;stroke-width:0.332;fill:#000000;stroke:#000000"
         x="49.14315"
         y="89.192856"
         id="tspan14" /><tspan
         style="font-size:3.52778px;line-height:1.4;stroke-width:0.332;fill:#000000;stroke:#000000"
         x="49.14315"
         y="94.131744"
         id="tspan6">118 portraits - 19 chapitres </tspan><tspan
         style="font-size:3.52778px;line-height:1.4;stroke-width:0.332;fill:#000000;stroke:#000000"
         x="49.661736"
         y="99.070641"
         id="tspan24">4000 ans d'histoire juive</tspan></text></g></svg>
