<svg xmlns="http://www.w3.org/2000/svg" width="425" height="595" viewBox="0 0 425 595">
  <defs><linearGradient id="bg2" x1="0" y1="0" x2="0" y2="1">
    <stop offset="0%" stop-color="#F9F0E5"/><stop offset="100%" stop-color="#F7E9D8"/>
  </linearGradient></defs>
  <rect width="425" height="595" fill="url(#bg2)"/>
  <rect x="10" y="10" width="405" height="575" rx="2" fill="none" stroke="#D4882A" stroke-width="0.7" opacity="0.4"/>
  <rect x="13" y="13" width="399" height="569" rx="1" fill="none" stroke="#D4882A" stroke-width="0.3" opacity="0.25"/>
  <g opacity="0.3" fill="none" stroke="#D4882A" stroke-width="0.6">
    <path d="M18,28 C23,18 33,16 48,16 M28,18 C18,23 16,33 16,48"/>
    <path d="M407,28 C402,18 392,16 377,16 M397,18 C407,23 409,33 409,48"/>
    <path d="M18,567 C23,577 33,579 48,579 M28,577 C18,572 16,562 16,547"/>
    <path d="M407,567 C402,577 392,579 377,579 M397,577 C407,572 409,562 409,547"/>
  </g>
  <rect x="13" y="13" width="399" height="26" fill="#CB6D17" opacity="0.92" rx="1"/>
  <text x="212" y="30" font-family="Georgia,serif" font-size="10" fill="#F4E1C9" text-anchor="middle" font-weight="bold" letter-spacing="0.8">Rabbi Yona de Gérone  —  רַבֵּנוּ יוֹנָה</text>
  <text x="25" y="57" font-family="Georgia,serif" font-size="7.5" fill="#3A2510" font-weight="bold" letter-spacing="1.5">BIOGRAPHIE (suite)</text>
  <text font-family="Georgia,serif" font-size="8" fill="#333333">
<tspan x="25" y="73" textLength="375" lengthAdjust="spacing">Rabbi Yona mourut à Tolède en 1263, avant d&apos;avoir pu accomplir son vœu de se rendre en</tspan>
<tspan x="25" dy="13.5" textLength="375" lengthAdjust="spacing">Terre d&apos;Israël pour prier sur la tombe de Maïmonide. Le Shaarei Teshouva est étudié</tspan>
<tspan x="25" dy="13.5" textLength="375" lengthAdjust="spacing">chaque année durant les dix jours de pénitence entre Rosh Hashana et Yom Kippour dans</tspan>
<tspan x="25" dy="13.5" textLength="375" lengthAdjust="spacing">toutes les communautés juives. Son influence sur le Moussar est immense. L&apos;ironie de</tspan>
<tspan x="25" dy="13.5" textLength="375" lengthAdjust="spacing">l&apos;histoire veut que l&apos;homme qui contribua à la destruction des livres de Maïmonide</tspan>
<tspan x="25" dy="13.5" textLength="375" lengthAdjust="spacing">devint lui-même un classique de la littérature juive, prouvant que la téchouva sincère</tspan>
<tspan x="25" dy="13.5">peut transformer les erreurs les plus graves.</tspan>
</text>
  <line x1="60" y1="177.5" x2="365" y2="177.5" stroke="#D4882A" stroke-width="0.5" opacity="0.35"/>
  <text x="25" y="192.5" font-family="Georgia,serif" font-size="7.5" fill="#3A2510" font-weight="bold" letter-spacing="1.5">ŒUVRES MAJEURES</text>
  <rect x="25" y="195.5" width="375" height="30" rx="4" fill="#F7EADA" stroke="#D4882A" stroke-width="0.4"/>
  
  <rect x="25" y="232.5" width="375" height="20.0" rx="4" fill="#FFF8E8" stroke="#C4973B" stroke-width="0.4"/>
  <text x="212" y="244.5" font-family="Georgia,serif" font-size="7.5" fill="#8B6914" text-anchor="middle" font-weight="bold" letter-spacing="1">LE SAVIEZ-VOUS ?</text>
  
  <line x1="60" y1="262.5" x2="365" y2="262.5" stroke="#D4882A" stroke-width="0.4" opacity="0.25"/>
  <text x="25" y="267.5" font-family="Georgia,serif" font-size="7.5" fill="#3A2510" font-weight="bold" letter-spacing="1.5">HÉRITAGE SPIRITUEL</text>
  <rect x="25" y="271.5" width="182" height="42" rx="3" fill="none" stroke="#D4882A" stroke-width="0.35"/>
  <text x="116" y="286.5" font-family="Georgia,serif" font-size="7.5" fill="#3A2510" text-anchor="middle" font-weight="bold">La Téchouva</text>
  <text x="116" y="300.5" font-family="Georgia,serif" font-size="7" fill="#555555" text-anchor="middle">Guide des étapes du repentir.</text>
  <rect x="218" y="271.5" width="182" height="42" rx="3" fill="none" stroke="#D4882A" stroke-width="0.35"/>
  <text x="309" y="286.5" font-family="Georgia,serif" font-size="7.5" fill="#3A2510" text-anchor="middle" font-weight="bold">L&apos;Humilité</text>
  <text x="309" y="300.5" font-family="Georgia,serif" font-size="7" fill="#555555" text-anchor="middle">Son repentir devint sa plus grande œuvre.</text>
  <line x1="60" y1="322.5" x2="365" y2="322.5" stroke="#D4882A" stroke-width="0.4" opacity="0.25"/>
  <text x="212" y="335.5" font-family="Georgia,serif" font-size="7.8" fill="#3A2510" text-anchor="middle" font-style="italic">« Les Portes du Repentir ne se ferment jamais. »</text>
  <text x="212" y="348.5" font-family="Georgia,serif" font-size="7.8" fill="#3A2510" text-anchor="middle" font-style="italic">« Transformer ses fautes en mérites. »</text>
  <rect x="13" y="557" width="399" height="25" fill="#CB6D17" opacity="0.85" rx="1"/>
  <text x="212" y="573" font-family="Georgia,serif" font-size="7.5" fill="#F4E1C9" text-anchor="middle" letter-spacing="0.8">LUMIÈRES D'ISRAËL — LA TORAH VIVANTE</text>
  <text x="400" y="590" font-family="Georgia,serif" font-size="7" fill="#AAAAAA" text-anchor="end">159</text>
</svg>