<svg xmlns="http://www.w3.org/2000/svg" width="425" height="595" viewBox="0 0 425 595">
  <defs><linearGradient id="bg2" x1="0" y1="0" x2="0" y2="1">
    <stop offset="0%" stop-color="#E5F4EB"/><stop offset="100%" stop-color="#D8EFE1"/>
  </linearGradient></defs>
  <rect width="425" height="595" fill="url(#bg2)"/>
  <rect x="10" y="10" width="405" height="575" rx="2" fill="none" stroke="#28A85C" stroke-width="0.7" opacity="0.4"/>
  <rect x="13" y="13" width="399" height="569" rx="1" fill="none" stroke="#28A85C" stroke-width="0.3" opacity="0.25"/>
  <g opacity="0.3" fill="none" stroke="#28A85C" stroke-width="0.6">
    <path d="M18,28 C23,18 33,16 48,16 M28,18 C18,23 16,33 16,48"/>
    <path d="M407,28 C402,18 392,16 377,16 M397,18 C407,23 409,33 409,48"/>
    <path d="M18,567 C23,577 33,579 48,579 M28,577 C18,572 16,562 16,547"/>
    <path d="M407,567 C402,577 392,579 377,579 M397,577 C407,572 409,562 409,547"/>
  </g>
  <rect x="13" y="13" width="399" height="26" fill="#1E8449" opacity="0.92" rx="1"/>
  <text x="212" y="30" font-family="Georgia,serif" font-size="10" fill="#C9E9D6" text-anchor="middle" font-weight="bold" letter-spacing="0.8">Or Ha&apos;Haïm Hakadosh  —  אוֹר הַחַיִּים הַקָּדוֹשׁ</text>
  <text x="25" y="57" font-family="Georgia,serif" font-size="7.5" fill="#0C2818" font-weight="bold" letter-spacing="1.5">BIOGRAPHIE (suite)</text>
  <text font-family="Georgia,serif" font-size="8" fill="#333333">
<tspan x="25" y="73" textLength="375" lengthAdjust="spacing">L&apos;Or Ha&apos;Haïm mourut à Jérusalem en 1743, un an seulement après son arrivée en Terre</tspan>
<tspan x="25" dy="13.5" textLength="375" lengthAdjust="spacing">sainte. Le Baal Shem Tov, dit la tradition hassidique, perçut sa mort mystérieusement</tspan>
<tspan x="25" dy="13.5" textLength="375" lengthAdjust="spacing">depuis l&apos;Europe de l&apos;Est et pleura amèrement. Sa tombe sur le mont des Oliviers est un</tspan>
<tspan x="25" dy="13.5" textLength="375" lengthAdjust="spacing">lieu de pèlerinage majeur où des milliers de personnes viennent prier chaque année,</tspan>
<tspan x="25" dy="13.5" textLength="375" lengthAdjust="spacing">notamment le jour anniversaire de sa disparition. Son commentaire reste un pont unique</tspan>
<tspan x="25" dy="13.5">entre les mondes séfarade et hassidique.</tspan>
</text>
  <line x1="60" y1="164.0" x2="365" y2="164.0" stroke="#28A85C" stroke-width="0.5" opacity="0.35"/>
  <text x="212" y="168.0" font-family="Georgia,serif" font-size="7" fill="#28A85C" text-anchor="middle">✦</text>
  <rect x="25" y="176.0" width="375" height="28" rx="4" fill="#DAF0E3" stroke="#28A85C" stroke-width="0.4"/>
  <text x="212" y="190.0" font-family="Georgia,serif" font-size="7.5" fill="#0C2818" text-anchor="middle" font-weight="bold" letter-spacing="1">HISTOIRE HASSIDIQUE</text>
  
  <text x="390" y="200.0" font-family="Georgia,serif" font-size="6" fill="#AA8877" text-anchor="end">— </text>
  <line x1="60" y1="214.0" x2="365" y2="214.0" stroke="#28A85C" stroke-width="0.4" opacity="0.3"/>
  <text x="25" y="229.0" font-family="Georgia,serif" font-size="7.5" fill="#0C2818" font-weight="bold" letter-spacing="1.5">PAROLE VIVANTE</text>
  <rect x="25" y="233.0" width="375" height="10" rx="4" fill="none" stroke="#28A85C" stroke-width="0.35" opacity="0.5"/>
  
  <line x1="60" y1="249.0" x2="365" y2="249.0" stroke="#28A85C" stroke-width="0.4" opacity="0.25"/>
  <text x="25" y="254.0" font-family="Georgia,serif" font-size="7.5" fill="#0C2818" font-weight="bold" letter-spacing="1.5">HÉRITAGE SPIRITUEL</text>
  <rect x="25" y="258.0" width="182" height="48" rx="3" fill="none" stroke="#28A85C" stroke-width="0.35"/>
  <text x="116" y="273.0" font-family="Georgia,serif" font-size="7.5" fill="#0C2818" text-anchor="middle" font-weight="bold">Le Commentaire</text>
  <text x="116" y="287.0" font-family="Georgia,serif" font-size="7" fill="#555555" text-anchor="middle">Exégèse mystique imprimée dans le &apos;Houmash.</text>
  <rect x="218" y="258.0" width="182" height="48" rx="3" fill="none" stroke="#28A85C" stroke-width="0.35"/>
  <text x="309" y="273.0" font-family="Georgia,serif" font-size="7.5" fill="#0C2818" text-anchor="middle" font-weight="bold">La Sainteté</text>
  <text x="309" y="287.0" font-family="Georgia,serif" font-size="7" fill="#555555" text-anchor="middle">Le Besht le considérait comme le Messie.</text>
  <line x1="60" y1="311.0" x2="365" y2="311.0" stroke="#28A85C" stroke-width="0.4" opacity="0.25"/>
  <text x="25" y="322.0" font-family="Georgia,serif" font-size="7.5" fill="#0C2818" font-weight="bold" letter-spacing="1.5">FILIATION SPIRITUELLE</text>
  <text font-family="Georgia,serif" font-size="7.5" fill="#555555">
<tspan x="25" y="335.0">Maître : La tradition kabbalistique marocaine</tspan>
<tspan x="25" dy="13">Disciples : Les communautés séfarades et hassidiques</tspan>
</text>
  <rect x="13" y="557" width="399" height="25" fill="#1E8449" opacity="0.85" rx="1"/>
  <text x="212" y="573" font-family="Georgia,serif" font-size="7.5" fill="#C9E9D6" text-anchor="middle" letter-spacing="0.8">LUMIÈRES D'ISRAËL — LA TORAH VIVANTE</text>
  <text x="400" y="590" font-family="Georgia,serif" font-size="7" fill="#AAAAAA" text-anchor="end">183</text>
</svg>