<svg xmlns="http://www.w3.org/2000/svg" width="425" height="595" viewBox="0 0 425 595">
  <defs><linearGradient id="bg2" x1="0" y1="0" x2="0" y2="1">
    <stop offset="0%" stop-color="#F9F4E9"/><stop offset="100%" stop-color="#F7EFDE"/>
  </linearGradient></defs>
  <rect width="425" height="595" fill="url(#bg2)"/>
  <rect x="10" y="10" width="405" height="575" rx="2" fill="none" stroke="#D4A94A" stroke-width="0.7" opacity="0.4"/>
  <rect x="13" y="13" width="399" height="569" rx="1" fill="none" stroke="#D4A94A" stroke-width="0.3" opacity="0.25"/>
  <g opacity="0.3" fill="none" stroke="#D4A94A" stroke-width="0.6">
    <path d="M18,28 C23,18 33,16 48,16 M28,18 C18,23 16,33 16,48"/>
    <path d="M407,28 C402,18 392,16 377,16 M397,18 C407,23 409,33 409,48"/>
    <path d="M18,567 C23,577 33,579 48,579 M28,577 C18,572 16,562 16,547"/>
    <path d="M407,567 C402,577 392,579 377,579 M397,577 C407,572 409,562 409,547"/>
  </g>
  <rect x="13" y="13" width="399" height="26" fill="#B8860B" opacity="0.92" rx="1"/>
  <text x="212" y="30" font-family="Georgia,serif" font-size="10" fill="#F4E9D1" text-anchor="middle" font-weight="bold" letter-spacing="0.8">Baal Shem Tov (Besht)  —  בַּעַל שֵׁם טוֹב</text>
  <text x="25" y="57" font-family="Georgia,serif" font-size="7.5" fill="#3A2E10" font-weight="bold" letter-spacing="1.5">BIOGRAPHIE (suite)</text>
  <text font-family="Georgia,serif" font-size="8" fill="#333333">
<tspan x="25" y="73" textLength="375" lengthAdjust="spacing">Le Baal Shem Tov mourut à Medjybij en 1760 le jour de Shavouot, la fête du don de la</tspan>
<tspan x="25" dy="13.5" textLength="375" lengthAdjust="spacing">Torah. Il ne laissa aucun écrit mais ses enseignements furent recueillis par ses</tspan>
<tspan x="25" dy="13.5" textLength="375" lengthAdjust="spacing">disciples, principalement dans le Toldot Yaakov Yossef de Rabbi Yaakov Yossef de</tspan>
<tspan x="25" dy="13.5" textLength="375" lengthAdjust="spacing">Polnoye, le premier ouvrage hassidique jamais imprimé. Son successeur, le Maguid de</tspan>
<tspan x="25" dy="13.5" textLength="375" lengthAdjust="spacing">Mezeritch, organisa le mouvement et envoya des émissaires dans toute l&apos;Europe de l&apos;Est</tspan>
<tspan x="25" dy="13.5" textLength="375" lengthAdjust="spacing">juive. En quelques décennies, le hassidisme transforma la piété de millions de Juifs</tspan>
<tspan x="25" dy="13.5">par la joie et la ferveur au service de D.ieu.</tspan>
</text>
  <line x1="60" y1="177.5" x2="365" y2="177.5" stroke="#D4A94A" stroke-width="0.5" opacity="0.35"/>
  <text x="212" y="181.5" font-family="Georgia,serif" font-size="7" fill="#D4A94A" text-anchor="middle">✦</text>
  <rect x="25" y="189.5" width="375" height="28" rx="4" fill="#F7F0E0" stroke="#D4A94A" stroke-width="0.4"/>
  <text x="212" y="203.5" font-family="Georgia,serif" font-size="7.5" fill="#3A2E10" text-anchor="middle" font-weight="bold" letter-spacing="1">HISTOIRE HASSIDIQUE</text>
  
  <text x="390" y="213.5" font-family="Georgia,serif" font-size="6" fill="#AA8877" text-anchor="end">— </text>
  <line x1="60" y1="227.5" x2="365" y2="227.5" stroke="#D4A94A" stroke-width="0.4" opacity="0.3"/>
  <text x="25" y="242.5" font-family="Georgia,serif" font-size="7.5" fill="#3A2E10" font-weight="bold" letter-spacing="1.5">PAROLE VIVANTE</text>
  <rect x="25" y="246.5" width="375" height="10" rx="4" fill="none" stroke="#D4A94A" stroke-width="0.35" opacity="0.5"/>
  
  <line x1="60" y1="262.5" x2="365" y2="262.5" stroke="#D4A94A" stroke-width="0.4" opacity="0.25"/>
  <text x="25" y="267.5" font-family="Georgia,serif" font-size="7.5" fill="#3A2E10" font-weight="bold" letter-spacing="1.5">HÉRITAGE SPIRITUEL</text>
  <rect x="25" y="271.5" width="182" height="48" rx="3" fill="none" stroke="#D4A94A" stroke-width="0.35"/>
  <text x="116" y="286.5" font-family="Georgia,serif" font-size="7.5" fill="#3A2E10" text-anchor="middle" font-weight="bold">Le Hassidisme</text>
  <text x="116" y="300.5" font-family="Georgia,serif" font-size="7" fill="#555555" text-anchor="middle">La joie et la ferveur au cœur du service divin.</text>
  <rect x="218" y="271.5" width="182" height="48" rx="3" fill="none" stroke="#D4A94A" stroke-width="0.35"/>
  <text x="309" y="286.5" font-family="Georgia,serif" font-size="7.5" fill="#3A2E10" text-anchor="middle" font-weight="bold">La Prière</text>
  <text x="309" y="300.5" font-family="Georgia,serif" font-size="7" fill="#555555" text-anchor="middle">Chaque Juif peut atteindre D.ieu par le cœur.</text>
  <line x1="60" y1="324.5" x2="365" y2="324.5" stroke="#D4A94A" stroke-width="0.4" opacity="0.25"/>
  <text x="25" y="335.5" font-family="Georgia,serif" font-size="7.5" fill="#3A2E10" font-weight="bold" letter-spacing="1.5">FILIATION SPIRITUELLE</text>
  <text font-family="Georgia,serif" font-size="7.5" fill="#555555">
<tspan x="25" y="348.5">Maître : A&apos;hiya HaShiloni (en vision)</tspan>
<tspan x="25" dy="13">Disciples : Le Maguid de Mezeritch, Rabbi Yaakov Yossef de Polnoye</tspan>
</text>
  <rect x="13" y="557" width="399" height="25" fill="#B8860B" opacity="0.85" rx="1"/>
  <text x="212" y="573" font-family="Georgia,serif" font-size="7.5" fill="#F4E9D1" text-anchor="middle" letter-spacing="0.8">LUMIÈRES D'ISRAËL — LA TORAH VIVANTE</text>
  <text x="400" y="590" font-family="Georgia,serif" font-size="7" fill="#AAAAAA" text-anchor="end">193</text>
</svg>