<svg xmlns="http://www.w3.org/2000/svg" width="425" height="595" viewBox="0 0 425 595">
  <defs><linearGradient id="bg2" x1="0" y1="0" x2="0" y2="1">
    <stop offset="0%" stop-color="#F9F4E9"/><stop offset="100%" stop-color="#F7EFDE"/>
  </linearGradient></defs>
  <rect width="425" height="595" fill="url(#bg2)"/>
  <rect x="10" y="10" width="405" height="575" rx="2" fill="none" stroke="#D4A94A" stroke-width="0.7" opacity="0.4"/>
  <rect x="13" y="13" width="399" height="569" rx="1" fill="none" stroke="#D4A94A" stroke-width="0.3" opacity="0.25"/>
  <g opacity="0.3" fill="none" stroke="#D4A94A" stroke-width="0.6">
    <path d="M18,28 C23,18 33,16 48,16 M28,18 C18,23 16,33 16,48"/>
    <path d="M407,28 C402,18 392,16 377,16 M397,18 C407,23 409,33 409,48"/>
    <path d="M18,567 C23,577 33,579 48,579 M28,577 C18,572 16,562 16,547"/>
    <path d="M407,567 C402,577 392,579 377,579 M397,577 C407,572 409,562 409,547"/>
  </g>
  <rect x="13" y="13" width="399" height="26" fill="#B8860B" opacity="0.92" rx="1"/>
  <text x="212" y="30" font-family="Georgia,serif" font-size="10" fill="#F4E9D1" text-anchor="middle" font-weight="bold" letter-spacing="0.8">Le Maguid de Mezeritch  —  הַמַּגִּיד מִמֶּזְרִיטְש</text>
  <text x="25" y="57" font-family="Georgia,serif" font-size="7.5" fill="#3A2E10" font-weight="bold" letter-spacing="1.5">BIOGRAPHIE (suite)</text>
  <text font-family="Georgia,serif" font-size="8" fill="#333333">
<tspan x="25" y="73" textLength="375" lengthAdjust="spacing">Le Maguid mourut à Annopol en 1772. Ses disciples fondèrent les principales dynasties</tspan>
<tspan x="25" dy="13.5" textLength="375" lengthAdjust="spacing">hassidiques qui existent encore aujourd&apos;hui : Rabbi Shneur Zalman de Liadi créa le</tspan>
<tspan x="25" dy="13.5" textLength="375" lengthAdjust="spacing">&apos;Habad, Rabbi Elimélekh de Lizhensk fonda le hassidisme de Galicie, Rabbi Lévi Yits&apos;hak</tspan>
<tspan x="25" dy="13.5" textLength="375" lengthAdjust="spacing">de Berditchev devint l&apos;avocat d&apos;Israël, Rabbi Aharon de Karlin porta le hassidisme en</tspan>
<tspan x="25" dy="13.5" textLength="375" lengthAdjust="spacing">Lituanie. Le Maguid transforma un cercle mystique local en un mouvement mondial qui</tspan>
<tspan x="25" dy="13.5">compte aujourd&apos;hui des millions d&apos;adeptes.</tspan>
</text>
  <line x1="60" y1="164.0" x2="365" y2="164.0" stroke="#D4A94A" stroke-width="0.5" opacity="0.35"/>
  <text x="212" y="168.0" font-family="Georgia,serif" font-size="7" fill="#D4A94A" text-anchor="middle">✦</text>
  <rect x="25" y="176.0" width="375" height="28" rx="4" fill="#F7F0E0" stroke="#D4A94A" stroke-width="0.4"/>
  <text x="212" y="190.0" font-family="Georgia,serif" font-size="7.5" fill="#3A2E10" text-anchor="middle" font-weight="bold" letter-spacing="1">HISTOIRE HASSIDIQUE</text>
  
  <text x="390" y="200.0" font-family="Georgia,serif" font-size="6" fill="#AA8877" text-anchor="end">— </text>
  <line x1="60" y1="214.0" x2="365" y2="214.0" stroke="#D4A94A" stroke-width="0.4" opacity="0.3"/>
  <text x="25" y="229.0" font-family="Georgia,serif" font-size="7.5" fill="#3A2E10" font-weight="bold" letter-spacing="1.5">PAROLE VIVANTE</text>
  <rect x="25" y="233.0" width="375" height="10" rx="4" fill="none" stroke="#D4A94A" stroke-width="0.35" opacity="0.5"/>
  
  <line x1="60" y1="249.0" x2="365" y2="249.0" stroke="#D4A94A" stroke-width="0.4" opacity="0.25"/>
  <text x="25" y="254.0" font-family="Georgia,serif" font-size="7.5" fill="#3A2E10" font-weight="bold" letter-spacing="1.5">HÉRITAGE SPIRITUEL</text>
  <rect x="25" y="258.0" width="182" height="48" rx="3" fill="none" stroke="#D4A94A" stroke-width="0.35"/>
  <text x="116" y="273.0" font-family="Georgia,serif" font-size="7.5" fill="#3A2E10" text-anchor="middle" font-weight="bold">L&apos;Organisation</text>
  <text x="116" y="287.0" font-family="Georgia,serif" font-size="7" fill="#555555" text-anchor="middle">Transformer un maître en mouvement.</text>
  <rect x="218" y="258.0" width="182" height="48" rx="3" fill="none" stroke="#D4A94A" stroke-width="0.35"/>
  <text x="309" y="273.0" font-family="Georgia,serif" font-size="7.5" fill="#3A2E10" text-anchor="middle" font-weight="bold">Les Disciples</text>
  <text x="309" y="287.0" font-family="Georgia,serif" font-size="7" fill="#555555" text-anchor="middle">Former les chefs du hassidisme européen.</text>
  <line x1="60" y1="311.0" x2="365" y2="311.0" stroke="#D4A94A" stroke-width="0.4" opacity="0.25"/>
  <text x="25" y="322.0" font-family="Georgia,serif" font-size="7.5" fill="#3A2E10" font-weight="bold" letter-spacing="1.5">FILIATION SPIRITUELLE</text>
  <text font-family="Georgia,serif" font-size="7.5" fill="#555555">
<tspan x="25" y="335.0">Maître : Le Baal Shem Tov</tspan>
<tspan x="25" dy="13">Disciples : Rabbi Shneur Zalman, Rabbi Elimélekh, Rabbi Lévi Yits&apos;hak</tspan>
</text>
  <rect x="13" y="557" width="399" height="25" fill="#B8860B" opacity="0.85" rx="1"/>
  <text x="212" y="573" font-family="Georgia,serif" font-size="7.5" fill="#F4E9D1" text-anchor="middle" letter-spacing="0.8">LUMIÈRES D'ISRAËL — LA TORAH VIVANTE</text>
  <text x="400" y="590" font-family="Georgia,serif" font-size="7" fill="#AAAAAA" text-anchor="end">195</text>
</svg>